<svg width="14" height="14" viewBox="0 0 14 14" fill="none" xmlns="http://www.w3.org/2000/svg">
<path fill-rule="evenodd" clip-rule="evenodd" d="M11.5766 3.26338C11.5766 3.7273 11.2005 4.10338 10.7366 4.10338C10.2727 4.10338 9.89658 3.7273 9.89658 3.26338C9.89658 2.79947 10.2727 2.42338 10.7366 2.42338C11.2005 2.42338 11.5766 2.79947 11.5766 3.26338ZM7 9.33337C5.71134 9.33337 4.66665 8.28867 4.66665 7.00002C4.66665 5.71136 5.71134 4.66666 7 4.66666C8.28866 4.66666 9.33335 5.71136 9.33335 7.00002C9.33335 8.28867 8.28866 9.33337 7 9.33337ZM7 3.40541C5.01479 3.40541 3.40539 5.01475 3.40539 7.00002C3.40539 8.98523 5.01479 10.5946 7 10.5946C8.98521 10.5946 10.5946 8.98523 10.5946 7.00002C10.5946 5.01475 8.98521 3.40541 7 3.40541ZM7 1.52588e-05C5.0989 1.52588e-05 4.86057 0.00805432 4.11392 0.0421246C3.36886 0.0761403 2.85999 0.194429 2.41473 0.367515C1.95442 0.546398 1.56406 0.785765 1.17491 1.17492C0.78575 1.56402 0.546383 1.95438 0.3675 2.41474C0.194469 2.86001 0.076125 3.36882 0.0421094 4.11394C0.00803906 4.86053 0 5.09891 0 7.00002C0 8.90112 0.00803906 9.1395 0.0421094 9.88609C0.076125 10.6312 0.194469 11.14 0.3675 11.5853C0.546383 12.0455 0.78575 12.436 1.17491 12.8251C1.56406 13.2143 1.95442 13.4536 2.41473 13.6325C2.85999 13.8056 3.36886 13.9239 4.11392 13.9579C4.86057 13.992 5.0989 14 7 14C8.9011 14 9.13954 13.992 9.88608 13.9579C10.6312 13.9239 11.14 13.8056 11.5853 13.6325C12.0456 13.4536 12.436 13.2143 12.8251 12.8251C13.2143 12.436 13.4536 12.0456 13.6326 11.5853C13.8056 11.14 13.9239 10.6312 13.9579 9.88609C13.992 9.1395 14 8.90112 14 7.00002C14 5.09891 13.992 4.86053 13.9579 4.11394C13.9239 3.36882 13.8056 2.86001 13.6326 2.41474C13.4536 1.95438 13.2143 1.56402 12.8251 1.17492C12.436 0.785765 12.0456 0.546398 11.5853 0.367515C11.14 0.194429 10.6312 0.0761403 9.88608 0.0421246C9.13954 0.00805432 8.9011 1.52588e-05 7 1.52588e-05ZM7 1.26127C8.86911 1.26127 9.09048 1.26838 9.8286 1.30207C10.5111 1.33324 10.8817 1.44727 11.1285 1.54308C11.4551 1.67006 11.6884 1.82182 11.9333 2.06671C12.1783 2.31166 12.3299 2.5449 12.4569 2.8716C12.5528 3.1183 12.6668 3.48897 12.6979 4.17141C12.7316 4.90953 12.7387 5.13091 12.7387 7.00002C12.7387 8.86907 12.7316 9.09045 12.6979 9.82856C12.6668 10.5111 12.5528 10.8817 12.4569 11.1284C12.3299 11.4551 12.1783 11.6883 11.9333 11.9333C11.6884 12.1782 11.4551 12.33 11.1285 12.4569C10.8817 12.5528 10.5111 12.6668 9.8286 12.698C9.09059 12.7316 8.86922 12.7387 7 12.7387C5.13084 12.7387 4.90941 12.7316 4.1714 12.698C3.48895 12.6668 3.11828 12.5528 2.87164 12.4569C2.54488 12.33 2.31164 12.1782 2.0667 11.9333C1.8218 11.6883 1.6701 11.4551 1.54312 11.1284C1.44725 10.8817 1.33323 10.5111 1.30211 9.82862C1.26837 9.09044 1.26126 8.86907 1.26126 7.00002C1.26126 5.13091 1.26837 4.90953 1.30211 4.17141C1.33323 3.48897 1.44725 3.1183 1.54312 2.8716C1.6701 2.5449 1.8218 2.31166 2.0667 2.06671C2.31164 1.82182 2.54488 1.67006 2.87164 1.54308C3.11828 1.44727 3.48895 1.33324 4.1714 1.30207C4.90952 1.26838 5.13095 1.26127 7 1.26127Z" fill="white"/>
</svg>
