<svg width="13" height="12" viewBox="0 0 13 12" fill="none" xmlns="http://www.w3.org/2000/svg">
<path fill-rule="evenodd" clip-rule="evenodd" d="M4.0885 11.5C8.99405 11.5 11.6772 7.26751 11.6772 3.5975C11.6772 3.47702 11.6772 3.35721 11.6694 3.23809C12.1914 2.8455 12.6418 2.35815 13 1.80041C12.5138 2.02513 11.9971 2.17269 11.4686 2.23767C12.025 1.89043 12.4417 1.34487 12.6412 0.701164C12.1173 1.02471 11.5447 1.25282 10.9473 1.37533C9.9372 0.257135 8.24785 0.202985 7.1734 1.25485C6.48115 1.93307 6.1867 2.94432 6.40185 3.90887C4.2575 3.79651 2.2594 2.74194 0.9048 1.00711C0.19695 2.27625 0.559 3.89939 1.73095 4.71435C1.3065 4.70148 0.89115 4.58236 0.52 4.36711V4.40231C0.52065 5.72424 1.4157 6.86274 2.6598 7.12469C2.2672 7.23638 1.8551 7.25262 1.456 7.17207C1.80505 8.3038 2.8067 9.07882 3.94745 9.10116C3.003 9.87415 1.83625 10.2938 0.63505 10.2925C0.42315 10.2918 0.21125 10.2789 0 10.2525C1.22005 11.0675 2.639 11.5 4.0885 11.498" fill="white"/>
</svg>
