<?xml version="1.0" encoding="utf-8"?>
<!-- Generator: Adobe Illustrator 24.3.0, SVG Export Plug-In . SVG Version: 6.00 Build 0)  -->
<svg version="1.1" id="katman_1" xmlns="http://www.w3.org/2000/svg" xmlns:xlink="http://www.w3.org/1999/xlink" x="0px" y="0px"
	 viewBox="0 0 657 466" style="enable-background:new 0 0 657 466;" xml:space="preserve">
<style type="text/css">
	.st0{opacity:0.4442;fill-rule:evenodd;clip-rule:evenodd;fill:#459EFF;fill-opacity:0.2;enable-background:new    ;}
	.st1{fill:none;stroke:#474BCA;stroke-width:10;stroke-opacity:0.1;}
	.st2{fill:none;stroke:#474BCA;stroke-width:5;stroke-opacity:0.1;}
	.st3{fill:none;stroke:url(#SVGID_1_);stroke-width:5;}
	.st4{fill-rule:evenodd;clip-rule:evenodd;fill:#73B1F5;}
	.st5{fill-rule:evenodd;clip-rule:evenodd;fill:#274F7A;}
	.st6{fill-rule:evenodd;clip-rule:evenodd;fill:#FFFFFF;filter:url(#Adobe_OpacityMaskFilter);}
	.st7{mask:url(#mask0_2_);}
	.st8{fill-rule:evenodd;clip-rule:evenodd;fill:#5563FF;}
	.st9{fill-rule:evenodd;clip-rule:evenodd;fill:#FFFFFF;}
	.st10{fill-rule:evenodd;clip-rule:evenodd;fill:#96C8FF;}
	.st11{fill-rule:evenodd;clip-rule:evenodd;fill:#E0EFFF;}
	.st12{fill-rule:evenodd;clip-rule:evenodd;fill:#F1F3FF;}
	.st13{fill-rule:evenodd;clip-rule:evenodd;fill:#FFFFFF;filter:url(#Adobe_OpacityMaskFilter_1_);}
	.st14{mask:url(#mask1_2_);}
	.st15{fill-rule:evenodd;clip-rule:evenodd;fill:#247BDE;}
	.st16{fill-rule:evenodd;clip-rule:evenodd;fill:#2789F5;}
	.st17{fill-rule:evenodd;clip-rule:evenodd;fill:#5A66D4;}
	.st18{fill-rule:evenodd;clip-rule:evenodd;fill:#FFADC8;}
	.st19{fill-rule:evenodd;clip-rule:evenodd;fill:#D4DAE9;}
	.st20{fill-rule:evenodd;clip-rule:evenodd;fill:#2C3955;}
	.st21{fill-rule:evenodd;clip-rule:evenodd;fill:#1C62B0;}
	.st22{fill-rule:evenodd;clip-rule:evenodd;fill:#BFC4F8;}
	.st23{fill-rule:evenodd;clip-rule:evenodd;fill:#ABD3FF;}
	.st24{fill-rule:evenodd;clip-rule:evenodd;fill:#F0FEFF;}
	.st25{fill-rule:evenodd;clip-rule:evenodd;fill:#FFFFFF;filter:url(#Adobe_OpacityMaskFilter_2_);}
	.st26{mask:url(#mask2_2_);}
	.st27{fill-rule:evenodd;clip-rule:evenodd;fill:#FFFFFF;filter:url(#Adobe_OpacityMaskFilter_3_);}
	.st28{mask:url(#mask3_2_);}
	.st29{fill-rule:evenodd;clip-rule:evenodd;fill:#FFFFFF;filter:url(#Adobe_OpacityMaskFilter_4_);}
	.st30{mask:url(#mask4_2_);}
	.st31{fill-rule:evenodd;clip-rule:evenodd;fill:#FFFFFF;filter:url(#Adobe_OpacityMaskFilter_5_);}
	.st32{mask:url(#mask5_2_);}
	.st33{fill-rule:evenodd;clip-rule:evenodd;fill:#FFFFFF;filter:url(#Adobe_OpacityMaskFilter_6_);}
	.st34{mask:url(#mask6_2_);}
	.st35{fill-rule:evenodd;clip-rule:evenodd;fill:#1C2334;}
	.st36{fill-rule:evenodd;clip-rule:evenodd;fill:#4491FF;}
	.st37{fill-rule:evenodd;clip-rule:evenodd;fill:#FFFFFF;filter:url(#Adobe_OpacityMaskFilter_7_);}
	.st38{mask:url(#mask7_2_);}
	.st39{fill-rule:evenodd;clip-rule:evenodd;fill:#121674;}
	.st40{fill-rule:evenodd;clip-rule:evenodd;fill:#3C81E3;}
</style>
<path class="st0" d="M579.2,57.8c-103.6,0-211.1-34.5-274.8-53.9c-63.6-19.4-128.2,32.2-105.1,107.7
	c23.1,75.5-82.4,129.9-112.6,183.5S76.6,451.5,203.2,439.4c126.6-12.1,173.1-32.1,226,9.4c52.9,41.6,132.1,1.9,150-50.9
	C597.1,345.2,682.8,57.8,579.2,57.8z"/>
<path class="st1" d="M573.9,417.8c42.8,0,77.5-34.7,77.5-77.5s-34.7-77.5-77.5-77.5s-77.5,34.7-77.5,77.5S531.1,417.8,573.9,417.8z"
	/>
<path class="st2" d="M102.9,454.8c10.2,0,18.5-8.3,18.5-18.5s-8.3-18.5-18.5-18.5s-18.5,8.3-18.5,18.5S92.6,454.8,102.9,454.8z"/>
<linearGradient id="SVGID_1_" gradientUnits="userSpaceOnUse" x1="431.4124" y1="294.8776" x2="638.7044" y2="441.0035" gradientTransform="matrix(1 0 0 -1 0 476)">
	<stop  offset="0" style="stop-color:#FFFFFF;stop-opacity:1.000000e-02"/>
	<stop  offset="1" style="stop-color:#459EFF;stop-opacity:0.3"/>
</linearGradient>
<path class="st3" d="M465.4,142.8l133-65"/>
<path class="st2" d="M84.6,66.1L42.1,33.6"/>
<path class="st4" d="M379.8,177.5c1-6.4,5.4-10.3,11.6-11.7c6.2-1.4,4.3-6.8,5-12.1c0.7-5.4,7.9-8,12.8-7.9c4.9,0.2,6.6-2.7,8.3-6.5
	c1.7-3.9,8.6-6,11.3-2.5c2.7,3.5-1.2,7.9-3.4,9.4c-2.3,1.5-3.4,5.3-3.4,9.1c0,3.8-1.7,9-7.9,9.7c-6.2,0.7-8.4,6-8.1,10.1
	c0.3,4-1.4,10.9-4.9,12.2c-3.5,1.3-10.6,6-10.9,13.6c-0.3,7.6-10.3,11.1-10.3,11.1V177.5z"/>
<path class="st4" d="M407.1,183.9c1.8-4.6,6.9-15.3,13.5-14.6c6.5,0.7,12.2-1.2,14.1-5.7c1.8-4.5,8.7-6,11.4-2.9
	c2.7,3.2-0.3,7.9-3.2,10.7c-2.9,2.9,0.2,11.2-3.7,14.1c-3.9,2.9-9.7,3.4-13.1,6.7c-3.5,3.4-1,10.4-7,13.9c-6,3.4-14.9,5.4-16.4,13.9
	c-1.5,8.5-13.6,14.9-19.1,12.6l-5.4-2.3v-29.5c0,0,2.3-6,5.4-9.2c3.1-3.2,6.7-3.9,11.4-3.9S405.2,188.6,407.1,183.9z"/>
<path class="st5" d="M380.4,196.2l-0.3-0.1c0-0.1,3.1-9.4,7-13.9c1.4-1.6,2.9-2.8,4.4-4c2.8-2.3,5.5-4.4,7.1-8.8
	c2.5-7.1,6.5-12,11.6-14.3c5.1-2.3,8-9.1,8.1-9.1l0.3,0.1c0,0.1-3,7-8.2,9.3c-5,2.2-9,7.1-11.4,14.1c-1.6,4.5-4.3,6.7-7.2,9
	c-1.5,1.2-3,2.4-4.4,4C383.5,186.9,380.5,196.1,380.4,196.2z"/>
<path class="st5" d="M379,218.7l-0.2-0.2c0.1-0.1,7.1-11.3,13.5-15.1c2-1.2,4.6-2.2,7.4-3.4c6.2-2.5,13.3-5.4,16.4-10.7
	c4.6-8,11.7-12.8,16.4-14.6l0.1,0.3c-4.6,1.7-11.6,6.5-16.2,14.4c-3.2,5.4-10.3,8.3-16.6,10.8c-2.8,1.1-5.4,2.2-7.4,3.4
	C386.1,207.4,379.1,218.6,379,218.7z"/>
<defs>
	<filter id="Adobe_OpacityMaskFilter" filterUnits="userSpaceOnUse" x="0.4" y="279.3" width="92.9" height="68.8">
		<feColorMatrix  type="matrix" values="1 0 0 0 0  0 1 0 0 0  0 0 1 0 0  0 0 0 1 0"/>
	</filter>
</defs>
<mask maskUnits="userSpaceOnUse" x="0.4" y="279.3" width="92.9" height="68.8" id="mask0_2_">
	<path class="st6" d="M0.4,279.3h92.9v68.8H0.4V279.3z"/>
</mask>
<g class="st7">
	<path class="st4" d="M63,299.3c0,0-54.6-28-62-17.7c-7.4,10.3,67.9,79.6,87.4,64.4C107.9,330.8,63,299.3,63,299.3z"/>
</g>
<path class="st8" d="M86.8,340.8c-6.7-14.1-63.4-45.3-63.9-45.6l0.2-0.3c0.6,0.3,57.4,31.5,64.1,45.8L86.8,340.8z"/>
<path class="st4" d="M93.7,323.9c-11.5,16.4-64.5-31.8-76.9-61.5c-12.4-29.7-6-42.7-3.2-45.2c2.8-2.5,37.9,15.4,53.9,35.3
	C83,272.1,103.4,310.1,93.7,323.9z"/>
<path class="st4" d="M63,204.7c7.4-3.2,35.2,33.4,36.8,61c1.6,27.7-4.5,37.5-15.8,27.7c-11.3-9.8-16.6-22.6-21-40.8
	C58.6,234.3,53.8,208.7,63,204.7z"/>
<path class="st8" d="M89.8,318.5c-23.6-43.2-54.6-65.6-54.9-65.8l0.2-0.3c0.3,0.2,31.4,22.7,55,65.9L89.8,318.5z"/>
<path class="st4" d="M360.8,383.6c5.2,3,11.9,1.2,15-4l39.6-68.7l-19-10.9l-39.6,68.7C353.8,373.9,355.6,380.6,360.8,383.6z"/>
<path class="st4" d="M490.2,383.6c-5.2,3-11.9,1.2-15-4l-39.6-68.7l19-10.9l39.6,68.7C497.2,373.9,495.4,380.6,490.2,383.6z"/>
<path class="st9" d="M346.2,283.7c0,43.8,35.5,79.3,79.3,79.3c43.8,0,79.3-35.5,79.3-79.3c0-43.8-35.5-79.3-79.3-79.3
	C381.7,204.4,346.2,239.9,346.2,283.7z"/>
<path class="st10" d="M362.1,283.7c0,35,28.5,63.4,63.4,63.4c35,0,63.4-28.5,63.4-63.4c0-35-28.5-63.4-63.4-63.4
	C390.5,220.2,362.1,248.7,362.1,283.7z M369.3,339.9c-15-15-23.3-35-23.3-56.2c0-21.2,8.3-41.2,23.3-56.2c15-15,35-23.3,56.2-23.3
	c21.2,0,41.2,8.3,56.2,23.3c15,15,23.3,35,23.3,56.2c0,21.2-8.3,41.2-23.3,56.2c-15,15-35,23.3-56.2,23.3
	C404.3,363.2,384.3,354.9,369.3,339.9z"/>
<path class="st10" d="M393.1,283.7c0,17.9,14.5,32.4,32.4,32.4c17.9,0,32.4-14.5,32.4-32.4c0-17.9-14.5-32.4-32.4-32.4
	C407.6,251.3,393.1,265.8,393.1,283.7z M377.1,283.7c0-26.7,21.7-48.5,48.5-48.5c26.7,0,48.5,21.7,48.5,48.5s-21.7,48.5-48.5,48.5
	C398.8,332.1,377.1,310.4,377.1,283.7z"/>
<path class="st10" d="M412.8,283.7c0,7,5.7,12.7,12.7,12.7c7,0,12.7-5.7,12.7-12.7c0-7-5.7-12.7-12.7-12.7
	C418.5,271,412.8,276.7,412.8,283.7z"/>
<path class="st4" d="M423.1,286.1c-0.1-0.1-0.1-0.1-0.2-0.2c-1.3-1.5-1.2-3.7,0.2-5.1l67.4-67.4l-1.8-9.6l20.5-20.5l2.7,14l14,2.7
	l-20.5,20.5l-9.6-1.8l-67.4,67.4C427,287.5,424.6,287.5,423.1,286.1C423.1,286.1,423.1,286.1,423.1,286.1
	C423.1,286.1,423.1,286.1,423.1,286.1z"/>
<path class="st11" d="M385.2,406.5h-307V116.8c0-3.9,3.1-7,7-7h293c3.9,0,7,3.1,7,7V406.5z"/>
<path class="st9" d="M351,184H112.4c-8.9,0-16.2-7.3-16.2-16.2c0-8.9,7.3-16.2,16.2-16.2H351c8.9,0,16.2,7.3,16.2,16.2
	C367.2,176.8,359.9,184,351,184z"/>
<path class="st5" d="M350.7,178.3c-5.8,0-10.4-4.7-10.4-10.4c0-5.8,4.7-10.4,10.4-10.4s10.4,4.7,10.4,10.4
	C361.1,173.6,356.4,178.3,350.7,178.3z"/>
<path class="st12" d="M186.3,175.2h-71c-1.2,0-2.2-1-2.2-2.2c0-1.2,1-2.2,2.2-2.2h71c1.2,0,2.2,1,2.2,2.2
	C188.4,174.2,187.5,175.2,186.3,175.2z"/>
<path class="st9" d="M349.8,163.4c-0.9,0-1.8,0.4-2.5,1c-0.9,0.9-1.2,2.1-0.9,3.3c0.3,1.3,1.3,2.3,2.6,2.6c1.2,0.3,2.4-0.1,3.3-0.9
	c0.9-0.9,1.2-2.1,0.9-3.3v0c-0.3-1.3-1.3-2.3-2.6-2.6C350.3,163.5,350,163.4,349.8,163.4z M349.8,172c-0.4,0-0.8,0-1.1-0.1
	c-1.9-0.4-3.4-1.9-3.8-3.8c-0.4-1.7,0.1-3.5,1.4-4.8c1.2-1.2,3-1.7,4.8-1.4c1.9,0.4,3.4,1.9,3.8,3.8c0.4,1.7-0.1,3.5-1.4,4.8
	C352.4,171.5,351.1,172,349.8,172z"/>
<path class="st9" d="M355.9,173.8c-0.2,0-0.4-0.1-0.5-0.2l-3-3c-0.3-0.3-0.3-0.7,0-1c0.3-0.3,0.7-0.3,1,0l3,3c0.3,0.3,0.3,0.7,0,1
	C356.2,173.7,356,173.8,355.9,173.8z"/>
<path class="st4" d="M243.6,260.6h-33.3c-3.3,0-6-2.7-6-6c0-3.3,2.7-6,6-6h33.3c3.3,0,6,2.7,6,6
	C249.6,257.9,246.9,260.6,243.6,260.6z"/>
<path class="st5" d="M78.2,134.1h307v-17.3c0-3.9-3.1-7-7-7h-293c-3.9,0-7,3.1-7,7V134.1z"/>
<path class="st10" d="M115.8,121.9c0,2.8-2.3,5.1-5.1,5.1c-2.8,0-5.1-2.3-5.1-5.1c0-2.8,2.3-5.1,5.1-5.1
	C113.5,116.8,115.8,119.1,115.8,121.9z"/>
<defs>
	<filter id="Adobe_OpacityMaskFilter_1_" filterUnits="userSpaceOnUse" x="48.2" y="19.3" width="383.3" height="404.8">
		<feColorMatrix  type="matrix" values="1 0 0 0 0  0 1 0 0 0  0 0 1 0 0  0 0 0 1 0"/>
	</filter>
</defs>
<mask maskUnits="userSpaceOnUse" x="48.2" y="19.3" width="383.3" height="404.8" id="mask1_2_">
	<path class="st13" d="M0.4,441.1h525.5V19.3H0.4V441.1z"/>
</mask>
<g class="st14">
	<path class="st4" d="M109.1,195h2.9V85.3h-2.9V195z"/>
	<path class="st15" d="M94.7,297.1l-5.9-14.2l-13.7,7l23.1-63.4l19.6,7.1L94.7,297.1z"/>
	<path class="st15" d="M126.5,297.1l5.9-14.2l13.7,7L123,226.6l-19.6,7.1L126.5,297.1z"/>
	<path class="st16" d="M115.7,259.3c3.9,5,11.8,2.1,11.6-4.2c-0.2-4.2,3.7-7.5,7.8-6.6c6.2,1.3,10.4-6,6.2-10.7
		c-2.8-3.1-2-8.1,1.8-10.1c5.6-2.9,4.1-11.3-2.1-12.2c-4.2-0.6-6.7-5-5.1-8.9c2.4-5.8-4.1-11.3-9.5-7.9c-3.6,2.3-8.3,0.5-9.6-3.5
		c-1.9-6-10.4-6-12.3,0c-1.3,4-6,5.8-9.6,3.5c-5.3-3.3-11.8,2.1-9.5,7.9c1.6,3.9-0.9,8.3-5.1,8.9c-6.2,0.9-7.7,9.2-2.1,12.2
		c3.7,2,4.6,6.9,1.8,10.1c-4.2,4.7,0,12,6.2,10.7h0c4.1-0.9,8,2.4,7.8,6.6c-0.2,6.3,7.7,9.2,11.6,4.2
		C108.1,256,113.1,256,115.7,259.3z"/>
	<path class="st15" d="M134.5,226.3c0,13.2-10.7,24-24,24c-13.2,0-24-10.7-24-24c0-13.2,10.7-24,24-24
		C123.8,202.4,134.5,213.1,134.5,226.3z"/>
	<path class="st4" d="M144.5,54.8v-5.1c0-7.7-6.2-13.9-13.9-13.9h-14.2c-12,0-23.4,5-31.5,13.8L73.6,62c-2.4,2.6-3.7,5.9-3.7,9.4
		c0,7.7,6.2,13.9,13.9,13.9h46.9c7.7,0,13.9-6.2,13.9-13.9V54.8z"/>
	<path class="st4" d="M144.5,70.5h35.3V54.8h-35.3V70.5z"/>
	<path class="st4" d="M204.2,35.9h-13.1l-18.3,24.7h13.1L204.2,35.9z"/>
	<path class="st4" d="M197.4,76.1l-11.5-15.5h-13.1l11.5,15.5H197.4z"/>
	<path class="st5" d="M116.6,35.9h3.7V25.3h-3.7V35.9z"/>
	<path class="st5" d="M92.8,95.1h3.7v-9.8h-3.7V95.1z"/>
	<path class="st5" d="M122.3,95.1h3.7v-9.8h-3.7V95.1z"/>
	<path class="st4" d="M56.3,23.2c0-1,0.8-1.8,1.8-1.8h58.7V25H58.1C57.1,25,56.3,24.2,56.3,23.2z"/>
	<path class="st4" d="M180.5,23.2c0-1-0.8-1.8-1.8-1.8H120V25h58.7C179.7,25,180.5,24.2,180.5,23.2z"/>
	<path class="st4" d="M122.3,23.2c0,2.2-1.8,3.9-3.9,3.9s-3.9-1.8-3.9-3.9s1.8-3.9,3.9-3.9S122.3,21.1,122.3,23.2z"/>
	<path class="st17" d="M149.8,96.9H88c-6.7,0-13.3-2.8-17.9-7.7c-0.7-0.7-0.7-1.9,0.1-2.6c0.7-0.7,1.9-0.7,2.6,0.1
		c3.9,4.2,9.5,6.6,15.2,6.6h61.7c1,0,1.8,0.8,1.8,1.8C151.6,96.1,150.8,96.9,149.8,96.9z"/>
	<path class="st5" d="M99.3,63.9c0.5,0,0.9-0.3,1.1-0.7l7.6-17.7c0.3-0.8-0.2-1.7-1.1-1.7H91.6c-2.4,1.7-4.6,3.6-6.6,5.8L73.6,62
		c-0.6,0.6-1,1.2-1.5,1.9H99.3z"/>
	<path class="st5" d="M121.9,55.7l4.4-10.2c0.3-0.8-0.2-1.7-1.1-1.7h-10.9c-0.5,0-0.9,0.3-1.1,0.7l-4.4,10.2
		c-0.3,0.8,0.2,1.7,1.1,1.7h10.9C121.2,56.4,121.7,56.1,121.9,55.7z"/>
	<path class="st18" d="M372.1,270.7c0,0,0.9-1.2,0.3-3.3c-0.6-2.1,0-4.4-0.3-4.6c-0.3-0.2-1.1,0-1.9,2.6c-0.8,2.6-3.2-1.7-3.6-2.5
		c-0.4-0.8-2.8-2.2-3.3-0.7c-0.5,1.5,0.8,5.9,1.5,7.2c0.7,1.3,4.5,3.2,4.5,3.2L372.1,270.7z"/>
	<path class="st19" d="M373.3,271.3l-0.7-1.6c0,0-3.6,0.5-5.6,2.2l0.6,2.1L373.3,271.3z"/>
	<path class="st16" d="M395.6,275c-5.7-1.3-11.8,7-14.6,7.4c-2.8,0.4-7.4-11.6-7.4-11.6s-5.1,1.4-7.3,2.9l6.6,18.4l14.7,2.6
		L395.6,275z"/>
	<path class="st18" d="M388,273.4c0,0,1,1.6,1.2,3.7c0.2,2.1,7.8,0.1,7.8,0.1s-1.3-6.3-0.7-7.3C396.8,269,388,273.4,388,273.4z"/>
	<path class="st19" d="M397.7,272.9c0,0-5.2-0.4-10.2,3.6L387,281l11.8-4.1L397.7,272.9z"/>
	<path class="st18" d="M391.1,254.7c4.9,0.6,8.5,0.1,8.6,9.1c0.1,9-13.6,11.1-15.2,10.3c-1.6-0.8-0.9-8-0.8-12.2
		C383.8,257.7,387.1,254.2,391.1,254.7z"/>
	<path class="st18" d="M392.2,263.6c0,0,1.6-2.1,3.4-0.7c1.7,1.5-0.4,6.4-2.7,6.4L392.2,263.6z"/>
	<path class="st20" d="M401,257.8c0,0,0.8-4.2-3.7-4.7c-4.6-0.5-8-3.3-11.6-1.8c-3.6,1.6-3.6,6.8-1.6,8.2c2,1.4,7.5,1.1,7.5,1.1
		l0.7,3c0,0,0.6,5.5,3.7,8.1c0,0,3,0.3,4.7-4.4C402.3,262.6,401,257.8,401,257.8z"/>
	<path class="st5" d="M367.2,355.8c0,0,0.9,4.4,0,7c0,0-4.4,1.3-6.8,1.5c-2.4,0.2-9,2.6-10.9,2.6c-1.9,0-3.6-1.9,1.7-4.4
		c5.3-2.6,7.5-6.6,7.5-6.6l1.1-1.7L367.2,355.8z"/>
	<path class="st21" d="M404.7,313.7c0,0,3.1,10.6-1.9,13.9c-5.1,3.3-26.5,2.4-26.5,2.4l-8.2,27c0,0-11.4,0-12.9-6.2
		c0,0,5.9-28.7,9-31.3C367.4,316.7,404.7,313.7,404.7,313.7z"/>
	<path class="st16" d="M398.2,274.8c0,0-11.7-0.7-15,14c-3.3,14.7-5.7,25.5-2.2,31c3.4,5.5,4.5,7.4,10,6c5.5-1.5,17-7.3,17.1-11.1
		c0.1-3.7-3.6-11.9-3.5-17.9C404.7,290.8,405.6,275.1,398.2,274.8z"/>
	<path class="st18" d="M361.3,275.7c0,0,0.5-1.6-0.9-3.6c-1.4-1.9-1.5-4.6-2-4.7c-0.4-0.1-1.1,0.4-1.1,3.4s-4-0.7-4.7-1.3
		c-0.7-0.7-3.7-1.3-3.7,0.4c0,1.8,3,6,4.2,7.1c1.2,1.1,5.9,1.8,5.9,1.8L361.3,275.7z"/>
	<path class="st19" d="M362.8,276.2l-1.3-1.2c0,0-3.1,0.9-5.1,4.6l2.4,2.8L362.8,276.2z"/>
	<path class="st16" d="M396.9,277.6c8.1,6.8-9,25.5-15.3,25.9C375.3,303.9,356,283,356,283s3.7-5,6.8-7.3c0,0,12.6,12.7,16.6,12.9
		C383.2,288.8,389.6,271.5,396.9,277.6z"/>
	<path class="st5" d="M356.9,400.9l4.3-14.8h24.6l-4.3,14.8H356.9z M401.7,331.5l-4.5,15.5h-24.6l4.5-15.5H401.7z M371.7,350.2h24.6
		L392,365h-24.6L371.7,350.2z M386.7,382.9h-24.6l4.3-14.8h24.6L386.7,382.9z M349.5,420.4c0.1,0,0.3,0.1,0.4,0.1
		c0.7,0,1.3-0.4,1.5-1.1L356,404h24.6l-4.2,14.5c-0.2,0.8,0.2,1.7,1.1,1.9c0.8,0.2,1.7-0.2,1.9-1.1l15-51.5c0.4-0.3,0.7-0.8,0.7-1.3
		c0-0.2,0-0.4-0.1-0.6l4.8-16.3c0.3-0.3,0.4-0.6,0.4-1.1c0-0.1,0-0.2,0-0.3l5.2-17.9c0.1-0.5,0-1-0.3-1.4c-0.3-0.4-0.8-0.6-1.3-0.6
		h-27.9c-0.7,0-1.3,0.5-1.5,1.1l-26,89C348.2,419.3,348.7,420.2,349.5,420.4z"/>
	<path class="st5" d="M378.2,331.5h24.6l4.5,15.5h-24.6L378.2,331.5z M398.5,400.9l-4.3-14.8h24.6l4.3,14.8H398.5z M388.9,368.1
		h24.6l4.3,14.8h-24.6L388.9,368.1z M383.7,350.2h24.6l4.3,14.8H388L383.7,350.2z M374.6,330.4l15.7,53.9c0,0.1,0,0.2,0,0.2
		c0,0.4,0.2,0.8,0.4,1l9.9,33.8c0.2,0.7,0.8,1.1,1.5,1.1c0.1,0,0.3,0,0.4-0.1c0.8-0.2,1.3-1.1,1.1-1.9l-4.2-14.5H424l4.5,15.3
		c0.2,0.8,1.1,1.3,1.9,1.1c0.8-0.2,1.3-1.1,1.1-1.9l-4.6-15.7c0-0.1,0-0.2,0-0.3c0-0.4-0.2-0.8-0.4-1.1l-10.2-35.1
		c0-0.1,0-0.2-0.1-0.3l-5-17.1c0-0.1,0-0.2,0-0.3c0-0.4-0.2-0.8-0.5-1.1l-5.2-18c-0.2-0.7-0.8-1.1-1.5-1.1h-27.9
		c-0.5,0-1,0.2-1.3,0.6C374.6,329.4,374.5,329.9,374.6,330.4z"/>
	<path class="st4" d="M223.7,239.4h-62.6c-3.3,0-6-2.7-6-6c0-3.3,2.7-6,6-6h62.6c3.3,0,6,2.7,6,6
		C229.8,236.7,227.1,239.4,223.7,239.4z"/>
	<path class="st4" d="M194.4,260.6h-33.3c-3.3,0-6-2.7-6-6c0-3.3,2.7-6,6-6h33.3c3.3,0,6,2.7,6,6
		C200.4,257.9,197.7,260.6,194.4,260.6z"/>
	<path class="st15" d="M97.9,121.9c0,2.8-2.3,5.1-5.1,5.1c-2.8,0-5.1-2.3-5.1-5.1c0-2.8,2.3-5.1,5.1-5.1
		C95.6,116.8,97.9,119.1,97.9,121.9z"/>
	<path class="st22" d="M134.4,121.9c0,2.8-2.3,5.1-5.1,5.1c-2.8,0-5.1-2.3-5.1-5.1c0-2.8,2.3-5.1,5.1-5.1
		C132.1,116.8,134.4,119.1,134.4,121.9z"/>
	<path class="st5" d="M247.3,218.3h-86.2c-3.3,0-6-2.7-6-6c0-3.3,2.7-6,6-6h86.2c3.3,0,6,2.7,6,6
		C253.4,215.6,250.7,218.3,247.3,218.3z"/>
	<path class="st4" d="M243.6,358.5h-33.3c-3.3,0-6-2.7-6-6c0-3.3,2.7-6,6-6h33.3c3.3,0,6,2.7,6,6
		C249.6,355.8,246.9,358.5,243.6,358.5z"/>
	<path class="st4" d="M223.7,337.3h-62.6c-3.3,0-6-2.7-6-6c0-3.3,2.7-6,6-6h62.6c3.3,0,6,2.7,6,6
		C229.8,334.6,227.1,337.3,223.7,337.3z"/>
	<path class="st4" d="M194.4,358.5h-33.3c-3.3,0-6-2.7-6-6c0-3.3,2.7-6,6-6h33.3c3.3,0,6,2.7,6,6
		C200.4,355.8,197.7,358.5,194.4,358.5z"/>
	<path class="st5" d="M247.3,316.3h-86.2c-3.3,0-6-2.7-6-6c0-3.3,2.7-6,6-6h86.2c3.3,0,6,2.7,6,6
		C253.4,313.6,250.7,316.3,247.3,316.3z"/>
	<path class="st9" d="M108.7,240.9v-22.1l-5,2.1l-2-4.6l8.4-3.9h4.1v28.5H108.7z"/>
	<path class="st23" d="M134.2,322.1c0,11.9-9.7,21.6-21.6,21.6c-11.9,0-21.6-9.7-21.6-21.6c0-11.9,9.7-21.6,21.6-21.6
		C124.5,300.5,134.2,310.2,134.2,322.1z"/>
	<path class="st12" d="M106.6,331.5v-3.2c1-1,2-2,2.9-2.9c0.4-0.4,0.8-0.8,1.1-1.1c0.4-0.4,0.8-0.8,1.1-1.1c0.3-0.3,0.6-0.6,0.9-0.9
		c0.3-0.3,0.5-0.5,0.6-0.7c0.3-0.3,0.5-0.6,0.8-0.9c0.2-0.3,0.4-0.5,0.5-0.8c0.1-0.3,0.2-0.5,0.3-0.8c0.1-0.3,0.1-0.5,0.1-0.8
		c0-0.6-0.2-1.1-0.7-1.5c-0.5-0.4-1.1-0.7-1.9-0.7c-0.8,0-1.4,0.2-1.9,0.7c-0.4,0.5-0.7,1-0.9,1.5l-3.2-1.3c0.1-0.5,0.4-1,0.7-1.5
		c0.3-0.5,0.7-1,1.2-1.4c0.5-0.4,1.1-0.7,1.8-1c0.7-0.3,1.5-0.4,2.3-0.4c0.9,0,1.8,0.1,2.5,0.4c0.7,0.3,1.4,0.7,1.9,1.1
		c0.5,0.5,0.9,1,1.2,1.7c0.3,0.6,0.4,1.3,0.4,2.1c0,1.1-0.3,2.2-0.8,3.1c-0.6,1-1.2,1.8-2,2.7l-2.3,2.3c-0.6,0.6-1.3,1.3-2.1,2
		l0.1,0.2h7.4v3.1H106.6z"/>
	<path class="st4" d="M162.3,413.7l11.4-38.6l11.4,38.6H162.3z M58,413.7l11.4-38.6l11.4,38.6H58z M190.5,422.3L175.6,372h7.3
		c1,0,1.7-0.8,1.7-1.7h-9.5l-0.1-0.4c0,0,0,0,0,0c0-0.1,0-0.1-0.1-0.2c0,0,0-0.1,0-0.1c0,0-0.1-0.1-0.1-0.1c0,0,0-0.1-0.1-0.1
		c0,0-0.1-0.1-0.1-0.1c0,0,0,0-0.1-0.1c0,0-0.1-0.1-0.1-0.1c0,0-0.1,0-0.1-0.1c0,0-0.1,0-0.1,0c-0.1,0-0.1,0-0.2-0.1c0,0,0,0,0,0
		c0,0-0.1,0-0.1,0c-0.1,0-0.1,0-0.2,0c0,0-0.1,0-0.1,0c0,0-0.1,0-0.1,0c-0.1,0-0.1,0-0.2,0c0,0-0.1,0-0.1,0c0,0,0,0,0,0
		c-0.1,0-0.1,0-0.1,0.1c0,0-0.1,0-0.1,0c0,0-0.1,0-0.1,0.1c-0.1,0-0.1,0.1-0.1,0.1c0,0,0,0,0,0c-0.1,0.1-0.1,0.1-0.2,0.2
		c0,0,0,0.1-0.1,0.1c0,0-0.1,0.1-0.1,0.1c0,0,0,0.1,0,0.1c0,0.1-0.1,0.1-0.1,0.2c0,0,0,0,0,0l-0.1,0.4H70.8l-0.1-0.4c0,0,0,0,0,0
		c0-0.1,0-0.1-0.1-0.2c0,0,0-0.1,0-0.1c0,0-0.1-0.1-0.1-0.1c0,0,0-0.1-0.1-0.1c0,0-0.1-0.1-0.1-0.1c0,0,0-0.1-0.1-0.1
		c0,0-0.1-0.1-0.1-0.1c0,0-0.1-0.1-0.1-0.1c0,0-0.1,0-0.1,0c-0.1,0-0.1,0-0.2-0.1c0,0,0,0,0,0c0,0-0.1,0-0.1,0c-0.1,0-0.1,0-0.2,0
		c0,0-0.1,0-0.1,0c0,0-0.1,0-0.1,0c-0.1,0-0.1,0-0.2,0c0,0-0.1,0-0.1,0c0,0,0,0,0,0c-0.1,0-0.1,0-0.2,0.1c0,0-0.1,0-0.1,0
		c0,0-0.1,0-0.1,0.1c0,0-0.1,0-0.1,0.1c0,0,0,0-0.1,0.1c0,0-0.1,0.1-0.1,0.1c0,0,0,0.1-0.1,0.1c0,0-0.1,0.1-0.1,0.1c0,0,0,0.1,0,0.1
		c0,0.1-0.1,0.1-0.1,0.2c0,0,0,0,0,0l-0.1,0.4H56.7c0,1,0.8,1.7,1.7,1.7h9l-14.9,50.3c-0.2,0.7,0.2,1.5,0.9,1.7
		c0.1,0,0.3,0.1,0.4,0.1c0.6,0,1.1-0.4,1.3-1l2-6.6h24.4l2,6.6c0.2,0.6,0.7,1,1.3,1c0.1,0,0.3,0,0.4-0.1c0.7-0.2,1.1-1,0.9-1.7
		L71.3,372h100.4l-14.9,50.3c-0.2,0.7,0.2,1.5,0.9,1.7c0.1,0,0.3,0.1,0.4,0.1c0.6,0,1.1-0.4,1.3-1l2-6.6c0,0,0.1,0,0.1,0h23.9
		c0.2,0,0.3,0,0.4-0.1l2,6.7c0.2,0.6,0.7,1,1.3,1c0.1,0,0.3,0,0.4-0.1C190.3,423.8,190.7,423.1,190.5,422.3z"/>
	<path class="st15" d="M50.1,370.2h141.1c1,0,1.9-0.9,1.9-1.9c0-1-0.9-1.9-1.9-1.9H50.1c-1,0-1.9,0.9-1.9,1.9
		C48.2,369.4,49.1,370.2,50.1,370.2z"/>
	<path class="st5" d="M120.3,360H165c0.9,0,1.6-0.7,1.6-1.6v-25.8c0-0.9-0.7-1.6-1.6-1.6h-44.7c-0.9,0-1.6,0.7-1.6,1.6v25.8
		C118.7,359.2,119.4,360,120.3,360z"/>
	<path class="st24" d="M164.3,333.9c0-0.2-0.1-0.3-0.3-0.3h-42.5c-0.2,0-0.3,0.1-0.3,0.3v24.5c0,0.2,0.1,0.3,0.3,0.3H164
		c0.2,0,0.3-0.1,0.3-0.3V333.9z"/>
</g>
<defs>
	<filter id="Adobe_OpacityMaskFilter_2_" filterUnits="userSpaceOnUse" x="119.8" y="332.1" width="45.7" height="28.5">
		<feColorMatrix  type="matrix" values="1 0 0 0 0  0 1 0 0 0  0 0 1 0 0  0 0 0 1 0"/>
	</filter>
</defs>
<mask maskUnits="userSpaceOnUse" x="119.8" y="332.1" width="45.7" height="28.5" id="mask2_2_">
	<path class="st25" d="M121.5,333.6c-0.2,0-0.3,0.1-0.3,0.3v24.5c0,0.2,0.1,0.3,0.3,0.3H164c0.2,0,0.3-0.1,0.3-0.3v-24.5
		c0-0.2-0.1-0.3-0.3-0.3"/>
</mask>
<g class="st26">
	<path class="st12" d="M163.3,360.6h-41.2c-1.2,0-2.2-1-2.2-2.2v-24c0-1.2,1-2.2,2.2-2.2h41.2c1.2,0,2.2,1,2.2,2.2v24
		C165.5,359.6,164.5,360.6,163.3,360.6z"/>
</g>
<defs>
	<filter id="Adobe_OpacityMaskFilter_3_" filterUnits="userSpaceOnUse" x="127.3" y="337.1" width="30.2" height="15.1">
		<feColorMatrix  type="matrix" values="1 0 0 0 0  0 1 0 0 0  0 0 1 0 0  0 0 0 1 0"/>
	</filter>
</defs>
<mask maskUnits="userSpaceOnUse" x="127.3" y="337.1" width="30.2" height="15.1" id="mask3_2_">
	<path class="st27" d="M121.5,333.6c-0.2,0-0.3,0.1-0.3,0.3v24.5c0,0.2,0.1,0.3,0.3,0.3H164c0.2,0,0.3-0.1,0.3-0.3v-24.5
		c0-0.2-0.1-0.3-0.3-0.3H121.5z"/>
</mask>
<g class="st28">
	<path class="st10" d="M157.5,337.1l-10.2,8.3l-5.1-1.2l-6.4,6l-5.3-1.5l-3.3,3v0.4h30.2V337.1z"/>
</g>
<defs>
	<filter id="Adobe_OpacityMaskFilter_4_" filterUnits="userSpaceOnUse" x="127" y="336.3" width="31.2" height="15.7">
		<feColorMatrix  type="matrix" values="1 0 0 0 0  0 1 0 0 0  0 0 1 0 0  0 0 0 1 0"/>
	</filter>
</defs>
<mask maskUnits="userSpaceOnUse" x="127" y="336.3" width="31.2" height="15.7" id="mask4_2_">
	<path class="st29" d="M121.5,333.6c-0.2,0-0.3,0.1-0.3,0.3v24.5c0,0.2,0.1,0.3,0.3,0.3H164c0.2,0,0.3-0.1,0.3-0.3v-24.5
		c0-0.2-0.1-0.3-0.3-0.3"/>
</mask>
<g class="st30">
	<path class="st16" d="M157.4,336.3c-0.4,0-0.8,0.3-0.8,0.8c0,0.1,0,0.2,0.1,0.3l-9,7.3c-0.1-0.1-0.3-0.1-0.4-0.1
		c-0.3,0-0.5,0.2-0.7,0.4l-3.8-0.9c0-0.4-0.4-0.7-0.7-0.7c-0.4,0-0.8,0.3-0.8,0.8c0,0.1,0,0.2,0.1,0.3l-5.3,5
		c-0.1-0.1-0.2-0.1-0.4-0.1c-0.3,0-0.5,0.1-0.6,0.3l-3.9-1.1c0-0.4-0.3-0.7-0.8-0.7c-0.4,0-0.8,0.3-0.8,0.8c0,0.1,0,0.2,0.1,0.3
		l-2.8,2.6c-0.1,0.1-0.1,0.2,0,0.3c0,0,0.1,0.1,0.2,0.1c0.1,0,0.1,0,0.2-0.1l2.8-2.6c0.1,0.1,0.2,0.1,0.4,0.1c0.3,0,0.5-0.1,0.6-0.3
		l3.9,1.1c0,0.4,0.3,0.7,0.8,0.7c0.4,0,0.8-0.3,0.8-0.8c0-0.1,0-0.2-0.1-0.3l5.3-5c0.1,0.1,0.2,0.1,0.4,0.1c0.3,0,0.5-0.2,0.7-0.4
		l3.7,0.9c0,0.4,0.4,0.7,0.8,0.7c0.4,0,0.8-0.3,0.8-0.8c0-0.1,0-0.2-0.1-0.3l9-7.4c0.1,0.1,0.2,0.1,0.4,0.1c0.4,0,0.8-0.3,0.8-0.8
		C158.2,336.7,157.8,336.3,157.4,336.3z"/>
</g>
<defs>
	<filter id="Adobe_OpacityMaskFilter_5_" filterUnits="userSpaceOnUse" x="126.5" y="337.6" width="15.7" height="0.8">
		<feColorMatrix  type="matrix" values="1 0 0 0 0  0 1 0 0 0  0 0 1 0 0  0 0 0 1 0"/>
	</filter>
</defs>
<mask maskUnits="userSpaceOnUse" x="126.5" y="337.6" width="15.7" height="0.8" id="mask5_2_">
	<path class="st31" d="M121.5,333.6c-0.2,0-0.3,0.1-0.3,0.3v24.5c0,0.2,0.1,0.3,0.3,0.3H164c0.2,0,0.3-0.1,0.3-0.3v-24.5
		c0-0.2-0.1-0.3-0.3-0.3"/>
</mask>
<g class="st32">
	<path class="st4" d="M126.9,338.4h14.9c0.2,0,0.4-0.2,0.4-0.4c0-0.2-0.2-0.4-0.4-0.4h-14.9c-0.2,0-0.4,0.2-0.4,0.4
		C126.5,338.3,126.7,338.4,126.9,338.4z"/>
</g>
<defs>
	<filter id="Adobe_OpacityMaskFilter_6_" filterUnits="userSpaceOnUse" x="126.5" y="339.3" width="8.5" height="0.8">
		<feColorMatrix  type="matrix" values="1 0 0 0 0  0 1 0 0 0  0 0 1 0 0  0 0 0 1 0"/>
	</filter>
</defs>
<mask maskUnits="userSpaceOnUse" x="126.5" y="339.3" width="8.5" height="0.8" id="mask6_2_">
	<path class="st33" d="M121.5,333.6c-0.2,0-0.3,0.1-0.3,0.3v24.5c0,0.2,0.1,0.3,0.3,0.3H164c0.2,0,0.3-0.1,0.3-0.3v-24.5
		c0-0.2-0.1-0.3-0.3-0.3"/>
</mask>
<g class="st34">
	<path class="st4" d="M126.9,340.1h7.7c0.2,0,0.4-0.2,0.4-0.4c0-0.2-0.2-0.4-0.4-0.4h-7.7c-0.2,0-0.4,0.2-0.4,0.4
		C126.5,339.9,126.7,340.1,126.9,340.1z"/>
</g>
<path class="st5" d="M166.7,355.4v2.9c0,0.9-0.8,1.7-1.7,1.7h-44.7c-0.9,0-1.6-0.8-1.6-1.7v-2.9H166.7z"/>
<path class="st5" d="M135.3,367h12.8c0,0-0.9-2.6-1-3.5c-0.2-0.9-0.3-3.5-0.3-3.5h-10.2c0,0-0.1,2.6-0.3,3.5
	C136.2,364.3,135.3,367,135.3,367z"/>
<path class="st35" d="M140.6,357.5c0,0.5,0.4,0.9,0.9,0.9c0.5,0,0.9-0.4,0.9-0.9c0-0.5-0.4-0.9-0.9-0.9
	C141,356.6,140.6,357,140.6,357.5z"/>
<path class="st36" d="M81.6,433.9v5.8c0,0,0.7,1.4,3.6,1.3c2.9-0.1,5.1-1.5,7.5-4c2.4-2.5,4.6-5.2,3.9-7.5c-0.7-2.3-2.3-3.2-7.8-0.9
	C83.1,430.8,81.6,433.9,81.6,433.9z"/>
<defs>
	<filter id="Adobe_OpacityMaskFilter_7_" filterUnits="userSpaceOnUse" x="64.5" y="427.1" width="16.4" height="14.1">
		<feColorMatrix  type="matrix" values="1 0 0 0 0  0 1 0 0 0  0 0 1 0 0  0 0 0 1 0"/>
	</filter>
</defs>
<mask maskUnits="userSpaceOnUse" x="64.5" y="427.1" width="16.4" height="14.1" id="mask7_2_">
	<path class="st37" d="M64.5,427.1h16.4v14.1H64.5V427.1z"/>
</mask>
<g class="st38">
	<path class="st36" d="M65.1,432.8l-0.5,6.6c0,0,0.5,2.1,4.9,1.6c4.4-0.5,9.3-7,11-9.6c1.8-2.6-2.2-6.6-7.5-2.8
		C67.6,432.4,65.1,432.8,65.1,432.8z"/>
</g>
<path class="st18" d="M55.6,322.6c0,0,2.1-1.5,2.9-3.6c0.7-2.1,1.7-3.2,2.2-3.6c0.5-0.4,0.7-1.9-1.4-1.1c-2.1,0.8-2.3,2.2-3.3,2.2
	c-1,0-1.8-4.2-3-5.7c-1.2-1.4-1.9-1.1-2,0.3c0,0-2.8,3.2-2.3,5.4s2.3,6.9,2.3,6.9l2,0.8L55.6,322.6z"/>
<path class="st19" d="M55.2,324.6v-2l-4.4,0.8v1.7l-0.5,3.3l4.3-0.8L55.2,324.6z"/>
<path class="st16" d="M66.3,332.4c0,0-2.5-0.3-4.2,2c-1.7,2.3-3.8,5.8-3.8,5.8l-1.9-16.7c0,0-2.7,2-7.3,3c0,0-0.2,21.1,3.7,25.1
	c3.9,4,15.7-5.5,15.7-5.5L66.3,332.4z"/>
<path class="st5" d="M90.7,374.9c0,0,2.8,25,2.5,31.2c-0.3,5.4-2.4,22.6-2.9,27.1c-0.1,0.7-0.5,1.2-1.1,1.4c-1.5,0.4-4.6,1-6.8,0.7
	c-0.7-0.1-1.3-0.9-1.2-1.8c0.3-4.4,1.2-18.3,1.8-23.6c0.6-6.4-2.8-16.1-4.4-21c-1.6-4.9-5.2-6.1-4.8-12.6c0.4-6.4,0.9-11.5,0.9-11.5
	L90.7,374.9z"/>
<path class="st5" d="M72.8,433.8c-1.5,0.5-4.6,1.3-7.4,0.2c-0.6-0.2-1-1-0.9-1.7c0.4-4.5,1.8-19.8,1.8-25.8c0-7.1-2-22.3-2-22.3
	s-2.3-7.4-2.3-12.9l10.1-3.3l3.2,1.3c0,0,4.6,22,3,33.1c-1.4,9.6-3.8,25.9-4.4,30.1C73.7,433.1,73.3,433.6,72.8,433.8z"/>
<path class="st18" d="M113.2,347.1c0,0,0.4-0.2,1.7-0.2c1.3,0,2.9-1.3,3.5-1.7s2-1,1.1,1.1c-0.2,0.4-1.5,1-1.5,1.7
	c0.1,0.7,6.8,3,6.9,3.7c0.2,0.7-1.8,0.6-2.3,0.8c-0.5,0.2-1.8,1.6-3.9,1.3c-2.1-0.2-4.8-2.6-4.8-2.6L113.2,347.1z"/>
<path class="st19" d="M111.7,347.4l1.5-0.2c0,0,1.4,1.3,0.8,4.1l-2.8,0.5L111.7,347.4z"/>
<path class="st18" d="M84,323.9c0,0-0.9,2.4-0.5,6.4c0.5,4-9.5,2.4-9.5,2.4v-9.1L84,323.9z"/>
<path class="st18" d="M76.6,305c-8,3.3-8.1,20.8,0,20.8s10.1-2,11.2-2.9C89,321.9,86.7,300.8,76.6,305z"/>
<path class="st39" d="M70.6,305.9c0,0,0-2.7,5-3.3c5-0.6,10.1-1.2,11.2,3.3s-2.4,3.9-2.4,3.9l-2.1,6.6c0,0,0.6,8.9-2.6,10.4
	c-3.2,1.5-6.4,2.4-9-3.5c-2.7-5.9-5.4-8.6-5-12.2C66,307.4,70.6,305.9,70.6,305.9z"/>
<path class="st19" d="M71.3,328.3c0,0,1.8-2.1,6.4-1.6c4.5,0.5,7.6,2.4,7.6,2.4l1.2,3.9c0,0-5.2-3.5-10.2-3.2
	c-4.2,0.2-5.7,1.9-5.7,1.9L71.3,328.3z"/>
<path class="st16" d="M90.4,334.1c3.8,2.2,11,14.1,11,14.1l10.7-1.2c0,0,1.3,1.4,1.2,5.8c0,0-10.5,3-14,2.9
	c-3.5-0.1-11.3-12-11.3-12L90.4,334.1z"/>
<path class="st16" d="M66.6,332.3c0,0,5.2-3.3,9.6-3.3c4.5,0,12.2,3.6,14.1,5.1s0,32.8,1.1,40.3c0,0-13-0.3-15.8,0l-1.4-5.8
	c0,0-1.2,4.4-1.4,5.8c0,0-4.8,0.4-11.7-1.4C61.1,373.1,60.5,334.7,66.6,332.3z"/>
<path class="st18" d="M83.3,315.7c0,0-1.6-2.6-3-1.6c-1.4,0.9-0.5,7,1.9,7h1.5L83.3,315.7z"/>
<path class="st20" d="M289.9,126.2c0,0-3.9,3.3-6.3,4.5c-2.4,1.2-8.1,3.7-7.4,4.7c0.7,1,4.3,0.5,10-0.6c5.6-1,7.1-1.1,7.4-3.2
	c0.4-2.1,0.8-4.8,0.8-4.8L289.9,126.2z"/>
<path class="st18" d="M281.8,131.6c0.9,0.5,2.5,1.3,4.2,1.4c2.5,0.1,6.6-3.2,7.9-3.3c0.3-1.5,0.5-2.8,0.5-2.8l-4.5-0.7
	c0,0-3.8,3.3-6.3,4.5C283.1,131,282.5,131.3,281.8,131.6z"/>
<path class="st20" d="M302.8,133c0,0,1.7,8.4,3.1,10.4c1.4,2,5.2,4.2,6.1,1.5c0.9-2.8-2.5-7.4-3.2-8.9c-0.7-1.4-2.7-4.4-2.7-4.4
	L302.8,133z"/>
<path class="st18" d="M307.5,140.6c1.7-0.5,0.9-4,0.1-6.5c-0.8-1.2-1.5-2.5-1.5-2.5l-2.9,1.3C303.8,135.5,305.4,141.1,307.5,140.6z"
	/>
<path class="st40" d="M311.4,97.3h-9.3h-9.3c0,0-4.2,3.9-4.2,8.3c0,4.4,2.7,6.7,13.5,6.7c10.8,0,13.5-2.3,13.5-6.7
	C315.6,101.2,311.4,97.3,311.4,97.3z"/>
<path class="st18" d="M278.4,56.2c-0.3,0.8-0.7,1.6-1,2.2c-0.4-1.7-0.8-5.5-2.2-6.7c-1.8-1.6-6.1,1.7-6.2,3c-0.1,1.3-0.1,3.9,1,6.6
	c1,2.6,3,4.7,3,4.7l1.3-0.3c1.1,1,3.6-0.7,3.6-0.7s2.1-2.7,2.2-4.3c0.1-1.6,0.2-3.5,0.7-4.9C281.1,54.5,279.3,54.1,278.4,56.2z"/>
<path class="st18" d="M323.5,107.8c0,0-0.2,4.1,3.2,4.1c3.5,0,4.7-1.1,5.7-1.1s2.1,1.1,3.8,1.1c1.3,0,2.8-0.3,1.9-0.9
	c-0.8-0.7-2.3-0.5-3.3-1.2c-1-0.6-2.6-1.5-3.9-1.5s-4.5-2.2-4.5-2.2L323.5,107.8z"/>
<path class="st16" d="M315.3,71.5c0,0,1.8,3,5.1,12.2c3.3,9.3,8.7,20.7,8.7,20.7s-1.4,3-6.9,3.5c0,0-3.9-11.6-5.3-14.8
	c-1.4-3.2-5.8-12.5-5.8-12.5L315.3,71.5z"/>
<path class="st16" d="M288,71.5l-7.1,4.7l-2.2-11.8c0,0-4.2,0.3-6.6,1.7c0,0,1.9,14.3,3.3,16.1c1.4,1.9,4.9,1.6,7.9,0
	c3-1.6,7.8-4.4,7.8-4.4L288,71.5z"/>
<path class="st20" d="M297.1,44.3c0,0,1.6-2.7,5.4-2.4c3.8,0.2,9.4,3,9.8,9.5c0.3,4.7-2.7,9.8-1.8,11.2c0.9,1.4-1.3,2.3-2.2,1
	c0,0,0,3.3-6.6,3.3c-6.7,0-6.5-3.3-6.5-3.3s-2.7,1.3-3.2,0.6c-0.6-0.7,0.4-1.4,0.6-2.4c0.3-1-0.5-3.1-1.3-6.4
	C290.6,52.1,291,44.8,297.1,44.3z"/>
<path class="st18" d="M304.7,62l-3-0.2l-3,0.2c0,0,0.5,2.1,0,5.8c0,0,0.8,0.4,3,0.4c2.3,0,3-0.4,3-0.4C304.2,64.1,304.7,62,304.7,62
	z"/>
<path class="st18" d="M304.6,66.9h-2.9h-2.9c0,0-1.7,1.1-3.6,1.6c0,0,0.7,6.2,6.5,6.2c5.8,0,6.5-6.2,6.5-6.2
	C306.3,68.1,304.6,66.9,304.6,66.9z"/>
<path class="st18" d="M295.6,54.2c0,0-1.5-1.1-2.3,0c-0.8,1.1-0.4,4.8,1.6,4.6c1.4-0.1,1.6-0.5,1.6-0.5L295.6,54.2z"/>
<path class="st18" d="M307.8,54.2c0,0,1.5-1.1,2.3,0c0.8,1.1,0.4,4.8-1.6,4.6c-1.4-0.1-1.6-0.5-1.6-0.5L307.8,54.2z"/>
<path class="st18" d="M301.7,45.3c-5.2,0-7.6,5.4-6.8,10.3c0.8,4.9,3.8,7.9,6.8,7.9c3,0,6.1-3,6.8-7.9S306.9,45.3,301.7,45.3z"/>
<path class="st20" d="M294.7,53.7c0,0,4.3-1.1,5.8-5.1c0,0,1,4.8,8.2,5.2h1c0,0,0.1-9.1-9.1-9.1C297.3,44.7,293.3,50.2,294.7,53.7z"
	/>
<path class="st22" d="M297.4,67.7c0,0,0.2,4.9,4.3,4.9s4.3-4.9,4.3-4.9l2.7,0.8l-1.1,18.3l3.4,11.1c0,0-6.3,1.9-9.4,1.9
	c-3.1,0-8.5-1.7-8.5-1.7l3.3-12.2l-2.9-17.1L297.4,67.7z"/>
<path class="st16" d="M307.2,67.7c0,0-2.4,14.2-2.2,20.8c0.1,6.6,5.3,14.1,5.3,14.1s3.7-1.4,5.1-3.4c0,0-2.7-6.3-2.7-10.1
	c0-3.8,2.8-16.6,2.7-17.5C315.2,70.6,309.5,68.2,307.2,67.7z"/>
<path class="st16" d="M296.1,67.7c0,0,2.4,14.2,2.2,20.8c-0.1,6.6-5.3,14.1-5.3,14.1s-3.7-1.4-5.1-3.4c0,0,2.7-6.3,2.7-10.1
	c0-3.8-2.8-16.6-2.7-17.5C288.1,70.6,293.8,68.2,296.1,67.7z"/>
<path class="st40" d="M296.6,102.6c-5.5,0.6-4.1,6.1-2.1,13.1c2,7,7.7,18.2,7.7,18.2s1.3,0.5,2.8,0c1.5-0.5,2.3-2,2.3-2
	s-3.1-14.3-4.4-18.9C301.7,108.4,301.1,102.1,296.6,102.6z"/>
<path class="st36" d="M309.5,96.3c5.8,2.9,2.9,10-1.3,16.2c-4.2,6.2-13,16-13,16s-4,0.2-6.2-2.3c0,0,8.7-17,11.1-21
	C302.6,101.1,307,95,309.5,96.3z"/>
<path class="st4" d="M340.8,395.9l-33.6-72.1c-3.6,2.3-7.5,4.1-11.5,5.4l33.6,72.1c0.7,1.6,2.1,2.7,3.6,3.3c1.5,0.6,3.3,0.5,4.9-0.2
	C340.9,402.8,342.3,399.1,340.8,395.9z"/>
<path class="st16" d="M268.4,318.4c-19.5-7.1-29.5-28.6-22.4-48.1c7.1-19.5,28.6-29.5,48.1-22.4c19.5,7.1,29.5,28.6,22.4,48.1
	C309.4,315.4,287.9,325.4,268.4,318.4z M297.7,237.8c-25-9.1-52.7,3.8-61.8,28.8c-9.1,25,3.8,52.7,28.8,61.8s52.7-3.8,61.8-28.8
	C335.7,274.6,322.8,246.9,297.7,237.8z"/>
<path class="st16" d="M304.3,347.7l-9.2-19.6l11.5-5.4l9.2,19.6L304.3,347.7z"/>
<path class="st23" d="M316.5,296c-7.1,19.5-28.6,29.5-48.1,22.4c-19.5-7.1-29.5-28.6-22.4-48.1c7.1-19.5,28.6-29.5,48.1-22.4
	C313.5,255,323.5,276.5,316.5,296z"/>
<path class="st5" d="M342.1,395l-13-28c-0.3-0.7-1.2-1-1.9-0.7l-11.8,5.5c-0.7,0.3-1,1.2-0.7,1.9l13.1,28.2c0.9,2,2.6,3.4,4.5,4.1
	c1.9,0.7,4.1,0.7,6.1-0.3C342.4,403.9,344,399,342.1,395z"/>
<path class="st4" d="M48.3,377.6c-2.4-5.4-16.9,1.3-15.2,8.5c-0.8,0.6-1.5,1.3-2.1,1.8c0-3.7,0-8.1,0-13.1c3.3-0.2,7.8-1.8,7.8-11.2
	c0-10.5-3.8-24.4-8.8-24.4c-5,0-7.9,11.4-8.1,18.2c-0.2,6.4,0.6,16.2,6.7,17.4c0,3,0,5.8,0,8.3c-0.5-0.6-1.2-1.2-1.9-1.9
	c1.4-7.3-14.3-16-16.9-9.5c-2.6,6.5,11.2,16.9,15.8,11.8c1.7,1.6,2.7,3,3,3.5c0,1.3,0,2.5,0,3.6c0,0.2,0,0.3,0,0.5
	c0.1,8.3,0.2,12.7,0.2,12.8c0,0.7,0.6,1.2,1.2,1.2c0,0,0,0,0,0c0.7,0,1.2-0.6,1.2-1.2c0-0.1-0.1-4.4-0.2-12.6
	c0.5-0.6,1.7-1.8,3.4-3.2C38.2,389.5,50.5,382.8,48.3,377.6z"/>
<path class="st15" d="M38.1,424.9H21.8c-0.7,0-1.3-0.5-1.5-1.1l-6.4-22.6c-0.3-1,0.5-2,1.5-2h29.1c1,0,1.8,1,1.5,2l-6.4,22.6
	C39.4,424.4,38.8,424.9,38.1,424.9z"/>
<path class="st10" d="M495.1,146c0.1,3.4-2.6,6.2-6,6.2c-3.4,0.1-6.2-2.6-6.2-6c-0.1-3.4,2.6-6.2,6-6.2
	C492.2,139.9,495,142.6,495.1,146z"/>
<path class="st10" d="M60.4,152.2c0,2.2-1.7,4.1-4,4.1c-2.2,0-4.1-1.7-4.1-4c0-2.2,1.8-4.1,4-4.1C58.5,148.2,60.3,150,60.4,152.2z"
	/>
<path class="st11" d="M404.9,81.4l-3,0.1l-0.1-3c0-1.3-1.1-2.3-2.3-2.2c-1.3,0-2.3,1.1-2.2,2.3l0.1,3l-3,0c-1.3,0-2.3,1.1-2.2,2.3
	c0,1.3,1.1,2.3,2.3,2.2l3-0.1l0,3c0,1.3,1.1,2.3,2.3,2.2c1.3,0,2.3-1.1,2.2-2.3l-0.1-3l3-0.1c1.3,0,2.3-1.1,2.2-2.3
	C407.2,82.4,406.2,81.3,404.9,81.4z"/>
<path class="st11" d="M35.5,188.8l-3.2,0.1l-0.1-3.2c0-1.3-1.1-2.4-2.4-2.4c-1.3,0-2.4,1.1-2.4,2.4l0.1,3.2l-3.2,0.1
	c-1.3,0-2.4,1.1-2.4,2.4c0,1.3,1.1,2.4,2.4,2.4l3.2-0.1l0.1,3.2c0,1.3,1.1,2.4,2.4,2.4c1.3,0,2.4-1.1,2.4-2.4l-0.1-3.2l3.2-0.1
	c1.3,0,2.4-1.1,2.4-2.4S36.8,188.8,35.5,188.8z"/>
</svg>
