<svg width="526" height="423" viewBox="0 0 526 423" fill="none" xmlns="http://www.w3.org/2000/svg">
<path fill-rule="evenodd" clip-rule="evenodd" d="M379.329 158.988C380.372 152.636 384.705 148.697 390.923 147.313C397.141 145.929 395.218 140.563 395.927 135.198C396.638 129.832 403.848 127.149 408.711 127.316C413.573 127.485 415.276 124.634 417.024 120.777C418.771 116.921 425.646 114.741 428.329 118.262C431.012 121.784 427.136 126.143 424.882 127.652C422.627 129.162 421.454 132.983 421.454 136.773C421.454 140.563 419.777 145.761 413.573 146.432C407.369 147.103 405.171 152.456 405.434 156.492C405.698 160.528 404.016 167.392 400.494 168.733C396.974 170.075 389.931 174.711 389.596 182.286C389.26 189.86 379.329 193.36 379.329 193.36V158.988Z" fill="#73B1F5"/>
<path fill-rule="evenodd" clip-rule="evenodd" d="M406.627 165.379C408.466 160.763 413.573 150.121 420.112 150.791C426.652 151.462 432.353 149.618 434.197 145.091C436.042 140.564 442.916 139.054 445.599 142.24C448.282 145.426 445.264 150.104 442.413 152.963C439.562 155.822 442.581 164.206 438.725 167.056C434.867 169.907 429.033 170.409 425.578 173.763C422.125 177.117 424.618 184.189 418.603 187.628C412.588 191.069 403.679 192.983 402.171 201.482C400.661 209.981 388.549 216.426 383.119 214.126L377.69 211.827V182.285C377.69 182.285 379.997 176.283 383.119 173.095C386.241 169.907 389.816 169.145 394.536 169.211C399.256 169.277 404.73 170.14 406.627 165.379" fill="#73B1F5"/>
<path fill-rule="evenodd" clip-rule="evenodd" d="M380.007 177.735L379.732 177.646C379.761 177.553 382.792 168.284 386.718 163.757C388.102 162.163 389.64 160.939 391.128 159.754C393.966 157.495 396.647 155.362 398.208 150.904C400.677 143.85 404.686 138.917 409.8 136.641C414.913 134.366 417.824 127.568 417.853 127.499L418.12 127.612C418.09 127.681 415.136 134.583 409.919 136.905C404.879 139.148 400.924 144.023 398.481 151C396.893 155.537 394.18 157.695 391.308 159.981C389.83 161.157 388.302 162.374 386.938 163.947C383.049 168.43 380.037 177.643 380.007 177.735" fill="#274F7A"/>
<path fill-rule="evenodd" clip-rule="evenodd" d="M378.571 200.18L378.325 200.026C378.396 199.914 385.435 188.707 391.857 184.924C393.866 183.742 396.493 182.68 399.274 181.555C405.51 179.034 412.577 176.175 415.685 170.83C420.334 162.835 427.423 157.983 432.083 156.258L432.184 156.529C427.57 158.238 420.545 163.046 415.936 170.975C412.778 176.407 405.661 179.285 399.383 181.823C396.612 182.943 393.994 184.003 392.005 185.174C385.641 188.921 378.641 200.068 378.571 200.18" fill="#274F7A"/>
<mask id="mask0" mask-type="alpha" maskUnits="userSpaceOnUse" x="0" y="260" width="93" height="70">
<path fill-rule="evenodd" clip-rule="evenodd" d="M0 260.794H92.8758V329.639H0V260.794Z" fill="white"/>
</mask>
<g mask="url(#mask0)">
<path fill-rule="evenodd" clip-rule="evenodd" d="M62.5402 280.76C62.5402 280.76 7.90293 252.744 0.509135 263.085C-6.88625 273.427 68.4166 342.661 87.9556 327.47C107.493 312.279 62.5402 280.76 62.5402 280.76" fill="#73B1F5"/>
</g>
<path fill-rule="evenodd" clip-rule="evenodd" d="M86.3705 322.274C79.6778 308.129 22.9984 276.984 22.4275 276.67L22.6165 276.326C23.1889 276.639 79.9795 307.846 86.7262 322.106L86.3705 322.274Z" fill="#5563FF"/>
<path fill-rule="evenodd" clip-rule="evenodd" d="M93.2543 305.442C81.7491 321.886 28.7229 273.663 16.3396 243.913C3.95547 214.163 10.3766 201.211 13.1294 198.742C15.8815 196.275 51.0655 214.095 66.9798 234.073C82.5567 253.629 102.968 291.558 93.2543 305.442" fill="#73B1F5"/>
<path fill-rule="evenodd" clip-rule="evenodd" d="M62.5401 186.181C69.9585 182.947 97.6908 219.561 99.3392 247.218C100.988 274.876 94.8221 284.711 83.54 274.914C72.2572 265.118 66.9175 252.357 62.5401 234.073C58.1635 215.789 53.3653 190.183 62.5401 186.181" fill="#73B1F5"/>
<path fill-rule="evenodd" clip-rule="evenodd" d="M89.3603 300.039C65.7759 256.862 34.7977 234.455 34.488 234.234L34.7167 233.913C35.0264 234.135 66.076 256.589 89.7065 299.851L89.3603 300.039Z" fill="#5563FF"/>
<path fill-rule="evenodd" clip-rule="evenodd" d="M360.379 365.074V365.074C365.615 368.097 372.308 366.302 375.331 361.067L414.97 292.411L396.012 281.466L356.372 350.122C353.35 355.357 355.143 362.051 360.379 365.074" fill="#73B1F5"/>
<path fill-rule="evenodd" clip-rule="evenodd" d="M489.768 365.074V365.074C484.533 368.097 477.839 366.302 474.816 361.067L435.177 292.411L454.136 281.466L493.775 350.122C496.798 355.357 495.004 362.051 489.768 365.074" fill="#73B1F5"/>
<path fill-rule="evenodd" clip-rule="evenodd" d="M345.765 265.187C345.765 308.988 381.273 344.495 425.074 344.495C468.874 344.495 504.382 308.988 504.382 265.187C504.382 221.387 468.874 185.879 425.074 185.879C381.273 185.879 345.765 221.387 345.765 265.187" fill="white"/>
<path fill-rule="evenodd" clip-rule="evenodd" d="M361.631 265.187C361.631 300.17 390.091 328.63 425.073 328.63C460.056 328.63 488.516 300.17 488.516 265.187C488.516 230.205 460.056 201.745 425.073 201.745C390.091 201.745 361.631 230.205 361.631 265.187M368.859 321.401C353.844 306.385 345.576 286.422 345.576 265.187C345.576 243.953 353.844 223.989 368.86 208.974C383.875 193.959 403.838 185.69 425.073 185.69C446.308 185.69 466.272 193.959 481.287 208.974C496.302 223.989 504.571 243.953 504.571 265.187C504.571 286.422 496.302 306.385 481.287 321.401C466.272 336.416 446.308 344.685 425.073 344.685C403.838 344.685 383.875 336.416 368.859 321.401" fill="#96C8FF"/>
<path fill-rule="evenodd" clip-rule="evenodd" d="M392.677 265.187C392.677 283.051 407.21 297.585 425.074 297.585C442.937 297.585 457.471 283.051 457.471 265.187C457.471 247.323 442.937 232.79 425.074 232.79C407.21 232.79 392.677 247.323 392.677 265.187M376.621 265.187C376.621 238.471 398.357 216.736 425.074 216.736C451.79 216.736 473.526 238.471 473.526 265.187C473.526 291.903 451.79 313.639 425.074 313.639C398.357 313.639 376.621 291.903 376.621 265.187" fill="#96C8FF"/>
<path fill-rule="evenodd" clip-rule="evenodd" d="M412.339 265.187C412.339 272.22 418.041 277.922 425.073 277.922C432.107 277.922 437.807 272.22 437.807 265.187C437.807 258.155 432.107 252.453 425.073 252.453C418.041 252.453 412.339 258.155 412.339 265.187" fill="#96C8FF"/>
<path fill-rule="evenodd" clip-rule="evenodd" d="M422.669 267.562C422.607 267.501 422.551 267.436 422.497 267.37C421.225 265.896 421.284 263.67 422.684 262.271L490.116 194.838L488.297 185.276L508.777 164.796L511.445 178.816L525.464 181.483L504.985 201.963L495.422 200.143L427.989 267.577C426.524 269.042 424.148 269.042 422.684 267.577C422.681 267.574 422.679 267.571 422.677 267.569C422.674 267.567 422.671 267.564 422.669 267.562" fill="#73B1F5"/>
<path fill-rule="evenodd" clip-rule="evenodd" d="M384.767 388.004H77.7996V98.2924C77.7996 94.4304 80.9303 91.2996 84.7924 91.2996H377.773C381.636 91.2996 384.767 94.4304 384.767 98.2924V388.004Z" fill="#E0EFFF"/>
<path fill-rule="evenodd" clip-rule="evenodd" d="M350.549 165.542H112.017C103.07 165.542 95.8181 158.289 95.8181 149.343C95.8181 140.396 103.07 133.144 112.017 133.144H350.549C359.495 133.144 366.747 140.396 366.747 149.343C366.747 158.289 359.495 165.542 350.549 165.542" fill="white"/>
<path fill-rule="evenodd" clip-rule="evenodd" d="M350.236 159.757V159.757C344.485 159.757 339.823 155.094 339.823 149.343C339.823 143.592 344.485 138.93 350.236 138.93C355.987 138.93 360.65 143.592 360.65 149.343C360.65 155.094 355.987 159.757 350.236 159.757" fill="#274F7A"/>
<path fill-rule="evenodd" clip-rule="evenodd" d="M185.823 156.719H114.846C113.649 156.719 112.677 155.747 112.677 154.55C112.677 153.351 113.649 152.38 114.846 152.38H185.823C187.022 152.38 187.992 153.351 187.992 154.55C187.992 155.747 187.022 156.719 185.823 156.719" fill="#F1F3FF"/>
<path fill-rule="evenodd" clip-rule="evenodd" d="M349.339 144.947C348.411 144.947 347.539 145.303 346.868 145.974C346.001 146.841 345.66 148.04 345.931 149.266C346.213 150.54 347.259 151.586 348.534 151.869C349.761 152.14 350.959 151.799 351.826 150.933C352.693 150.066 353.033 148.866 352.762 147.642V147.641C352.479 146.367 351.434 145.321 350.159 145.038C349.884 144.977 349.609 144.947 349.339 144.947M349.337 153.546C348.957 153.546 348.573 153.504 348.19 153.419C346.296 153 344.8 151.504 344.38 149.609C343.995 147.87 344.505 146.091 345.745 144.852C346.984 143.611 348.764 143.103 350.503 143.488C352.397 143.908 353.892 145.403 354.313 147.297C354.698 149.037 354.188 150.815 352.949 152.056C351.981 153.023 350.686 153.546 349.337 153.546" fill="white"/>
<path fill-rule="evenodd" clip-rule="evenodd" d="M355.425 155.257C355.24 155.257 355.054 155.187 354.912 155.045L351.873 152.006C351.59 151.722 351.59 151.263 351.873 150.98C352.156 150.697 352.615 150.697 352.899 150.98L355.938 154.019C356.221 154.303 356.221 154.761 355.938 155.045C355.797 155.187 355.611 155.257 355.425 155.257" fill="white"/>
<path fill-rule="evenodd" clip-rule="evenodd" d="M243.118 242.093H209.816C206.487 242.093 203.789 239.395 203.789 236.066C203.789 232.737 206.487 230.039 209.816 230.039H243.118C246.446 230.039 249.144 232.737 249.144 236.066C249.144 239.395 246.446 242.093 243.118 242.093" fill="#73B1F5"/>
<path fill-rule="evenodd" clip-rule="evenodd" d="M77.7993 115.558H384.767V98.2925C384.767 94.4304 381.636 91.2997 377.774 91.2997H84.7929C80.9301 91.2997 77.7993 94.4304 77.7993 98.2925V115.558Z" fill="#274F7A"/>
<path fill-rule="evenodd" clip-rule="evenodd" d="M115.339 103.429C115.339 106.268 113.038 108.57 110.198 108.57C107.359 108.57 105.057 106.268 105.057 103.429C105.057 100.589 107.359 98.2874 110.198 98.2874C113.038 98.2874 115.339 100.589 115.339 103.429" fill="#96C8FF"/>
<mask id="mask1" mask-type="alpha" maskUnits="userSpaceOnUse" x="0" y="0" width="526" height="423">
<path fill-rule="evenodd" clip-rule="evenodd" d="M0 422.641H525.465V0.793213H0V422.641Z" fill="white"/>
</mask>
<g mask="url(#mask1)">
<path fill-rule="evenodd" clip-rule="evenodd" d="M108.714 176.518H111.609V66.7721H108.714V176.518Z" fill="#73B1F5"/>
<path fill-rule="evenodd" clip-rule="evenodd" d="M94.2647 278.625L88.3152 264.445L74.6416 271.483L97.7131 208.095L117.336 215.237L94.2647 278.625Z" fill="#247BDE"/>
<path fill-rule="evenodd" clip-rule="evenodd" d="M126.058 278.625L132.008 264.445L145.681 271.483L122.609 208.095L102.987 215.237L126.058 278.625Z" fill="#247BDE"/>
<path fill-rule="evenodd" clip-rule="evenodd" d="M115.283 240.841V240.841C119.15 245.814 127.121 242.912 126.888 236.617C126.731 232.389 130.597 229.145 134.734 230.033C140.893 231.356 145.134 224.01 140.908 219.337C138.071 216.2 138.948 211.229 142.688 209.25C148.255 206.305 146.783 197.952 140.542 197.089C136.352 196.509 133.828 192.137 135.422 188.218C137.794 182.382 131.296 176.93 125.961 180.279C122.379 182.53 117.635 180.803 116.336 176.776C114.403 170.781 105.92 170.781 103.986 176.776C102.687 180.803 97.9447 182.53 94.3614 180.279C89.0264 176.93 82.5283 182.382 84.9008 188.218C86.4935 192.137 83.9702 196.509 79.7794 197.089C73.5393 197.952 72.0664 206.305 77.6348 209.25C81.3746 211.229 82.2512 216.2 79.4134 219.337C75.1885 224.01 79.43 231.356 85.5884 230.033H85.5892C89.7251 229.145 93.592 232.389 93.4347 236.617C93.2013 242.912 101.172 245.814 105.04 240.841V240.841C107.637 237.501 112.685 237.501 115.283 240.841" fill="#2789F5"/>
<path fill-rule="evenodd" clip-rule="evenodd" d="M134.117 207.82C134.117 221.051 123.392 231.776 110.161 231.776C96.9313 231.776 86.2051 221.051 86.2051 207.82C86.2051 194.589 96.9313 183.865 110.161 183.865C123.392 183.865 134.117 194.589 134.117 207.82" fill="#247BDE"/>
<path fill-rule="evenodd" clip-rule="evenodd" d="M144.117 36.3346V31.2315C144.117 23.5653 137.904 17.3514 130.238 17.3514H116.065C104.112 17.3514 92.7023 22.3442 84.5907 31.1243L73.18 43.4735C70.8115 46.0381 69.4958 49.4016 69.4958 52.8928C69.4958 60.5582 75.7098 66.7721 83.3751 66.7721H130.238C137.904 66.7721 144.117 60.5582 144.117 52.8928V36.3346Z" fill="#73B1F5"/>
<path fill-rule="evenodd" clip-rule="evenodd" d="M144.117 52.044H179.465V36.3346H144.117V52.044Z" fill="#73B1F5"/>
<path fill-rule="evenodd" clip-rule="evenodd" d="M203.742 17.3517H190.651L172.323 42.062H185.414L203.742 17.3517Z" fill="#73B1F5"/>
<path fill-rule="evenodd" clip-rule="evenodd" d="M196.945 57.6084L185.415 42.0618H172.322L183.854 57.6084H196.945Z" fill="#73B1F5"/>
<path fill-rule="evenodd" clip-rule="evenodd" d="M116.129 17.3514H119.786V6.79988H116.129V17.3514Z" fill="#274F7A"/>
<path fill-rule="evenodd" clip-rule="evenodd" d="M92.3669 76.5828H96.0226V66.7721H92.3669V76.5828Z" fill="#274F7A"/>
<path fill-rule="evenodd" clip-rule="evenodd" d="M121.875 76.5828H125.53V66.7721H121.875V76.5828Z" fill="#274F7A"/>
<path fill-rule="evenodd" clip-rule="evenodd" d="M55.8679 4.71077V4.71077C55.8679 3.70158 56.6857 2.88296 57.6957 2.88296H116.352V6.53937H57.6957C56.6857 6.53937 55.8679 5.72074 55.8679 4.71077" fill="#73B1F5"/>
<path fill-rule="evenodd" clip-rule="evenodd" d="M180.046 4.71077V4.71077C180.046 3.70158 179.228 2.88296 178.218 2.88296H119.562V6.53937H178.218C179.228 6.53937 180.046 5.72074 180.046 4.71077" fill="#73B1F5"/>
<path fill-rule="evenodd" clip-rule="evenodd" d="M121.874 4.71077C121.874 6.87444 120.12 8.6284 117.957 8.6284C115.794 8.6284 114.04 6.87444 114.04 4.71077C114.04 2.5471 115.794 0.793133 117.957 0.793133C120.12 0.793133 121.874 2.5471 121.874 4.71077" fill="#73B1F5"/>
<path fill-rule="evenodd" clip-rule="evenodd" d="M149.337 78.4116H87.6137C80.8757 78.4116 74.3577 75.6024 69.7302 70.7049C69.0371 69.9713 69.0696 68.8136 69.8033 68.1204C70.5377 67.4273 71.6946 67.4598 72.3878 68.1935C76.3276 72.3636 81.877 74.7552 87.6137 74.7552H149.337C150.347 74.7552 151.166 75.5738 151.166 76.583C151.166 77.593 150.347 78.4116 149.337 78.4116" fill="#5A66D4"/>
<path fill-rule="evenodd" clip-rule="evenodd" d="M98.852 45.3909C99.334 45.3909 99.7699 45.1042 99.9612 44.662L107.602 26.9889C107.947 26.191 107.362 25.3009 106.492 25.3009H91.2049C88.8245 26.9961 86.606 28.943 84.5908 31.1241L73.1802 43.4733C72.6283 44.0712 72.136 44.7144 71.7009 45.3909H98.852Z" fill="#274F7A"/>
<path fill-rule="evenodd" clip-rule="evenodd" d="M121.432 37.1534L125.826 26.9893C126.172 26.1914 125.586 25.3005 124.717 25.3005H113.808C113.326 25.3005 112.89 25.5871 112.698 26.0302L108.304 36.1943C107.959 36.9923 108.545 37.8823 109.414 37.8823H120.323C120.804 37.8823 121.241 37.5957 121.432 37.1534" fill="#274F7A"/>
<path fill-rule="evenodd" clip-rule="evenodd" d="M371.636 252.172C371.636 252.172 372.561 250.933 371.917 248.882C371.273 246.831 371.918 244.496 371.58 244.294C371.24 244.091 370.489 244.315 369.712 246.937C368.934 249.559 366.485 245.226 366.104 244.468C365.722 243.71 363.348 242.292 362.808 243.784C362.269 245.276 363.648 249.706 364.356 250.979C365.063 252.251 368.862 254.142 368.862 254.142L371.636 252.172Z" fill="#FFADC8"/>
<path fill-rule="evenodd" clip-rule="evenodd" d="M372.861 252.756L372.196 251.171C372.196 251.171 368.565 251.682 366.571 253.37L367.134 255.518L372.861 252.756Z" fill="#D4DAE9"/>
<path fill-rule="evenodd" clip-rule="evenodd" d="M395.187 256.511C389.443 255.185 383.385 263.488 380.558 263.914C377.731 264.339 373.155 252.299 373.155 252.299C373.155 252.299 368.04 253.73 365.885 255.198L372.481 273.627L387.135 276.184L395.187 256.511Z" fill="#2789F5"/>
<path fill-rule="evenodd" clip-rule="evenodd" d="M387.563 254.898C387.563 254.898 388.539 256.524 388.756 258.583C388.972 260.643 396.534 258.682 396.534 258.682C396.534 258.682 395.235 252.404 395.79 251.428C396.344 250.453 387.563 254.898 387.563 254.898" fill="#FFADC8"/>
<path fill-rule="evenodd" clip-rule="evenodd" d="M397.292 254.412C397.292 254.412 392.117 253.986 387.135 258.037L386.523 262.515L398.358 258.457L397.292 254.412Z" fill="#D4DAE9"/>
<path fill-rule="evenodd" clip-rule="evenodd" d="M390.631 236.166C395.558 236.815 399.094 236.296 399.228 245.281C399.362 254.267 385.631 256.349 384.021 255.544C382.412 254.74 383.082 247.497 383.216 243.341C383.35 239.182 386.708 235.649 390.631 236.166" fill="#FFADC8"/>
<path fill-rule="evenodd" clip-rule="evenodd" d="M391.8 245.084C391.8 245.084 393.408 242.938 395.153 244.413C396.896 245.888 394.75 250.851 392.47 250.851L391.8 245.084Z" fill="#FFADC8"/>
<path fill-rule="evenodd" clip-rule="evenodd" d="M400.613 239.285C400.613 239.285 401.445 235.126 396.87 234.606C392.294 234.087 388.863 231.279 385.224 232.838C381.585 234.398 381.622 239.678 383.631 241.04C385.64 242.405 391.097 242.093 391.097 242.093L391.799 245.084C391.799 245.084 392.414 250.565 395.473 253.14C395.473 253.14 398.513 253.441 400.176 248.761C401.84 244.082 400.613 239.285 400.613 239.285" fill="#2C3955"/>
<path fill-rule="evenodd" clip-rule="evenodd" d="M366.779 337.248C366.779 337.248 367.688 341.661 366.779 344.256C366.779 344.256 362.379 345.601 359.974 345.755C357.568 345.911 350.974 348.315 349.034 348.315C347.095 348.315 345.466 346.454 350.742 343.893C356.016 341.334 358.267 337.248 358.267 337.248L359.353 335.511L366.779 337.248Z" fill="#274F7A"/>
<path fill-rule="evenodd" clip-rule="evenodd" d="M404.314 295.188C404.314 295.188 407.457 305.813 402.405 309.076C397.35 312.34 375.954 311.432 375.954 311.432L367.804 338.41C367.804 338.41 356.425 338.416 354.897 332.256C354.897 332.256 360.84 303.603 363.898 300.924C366.954 298.245 404.314 295.188 404.314 295.188" fill="#1C62B0"/>
<path fill-rule="evenodd" clip-rule="evenodd" d="M397.78 256.264C397.78 256.264 386.097 255.585 382.793 270.297C379.487 285.01 377.142 295.778 380.554 301.322C383.965 306.866 385.031 308.748 390.576 307.274C396.119 305.801 407.527 299.936 407.634 296.205C407.74 292.474 404.009 284.264 404.116 278.294C404.222 272.324 405.165 256.568 397.78 256.264" fill="#2789F5"/>
<path fill-rule="evenodd" clip-rule="evenodd" d="M360.891 257.16C360.891 257.16 361.436 255.527 360.037 253.584C358.637 251.641 358.504 248.947 358.075 248.852C357.645 248.757 356.93 249.256 357.025 252.299C357.12 255.342 353.016 251.62 352.347 250.952C351.68 250.284 348.673 249.616 348.626 251.382C348.577 253.148 351.584 257.347 352.777 258.445C353.97 259.543 358.648 260.212 358.648 260.212L360.891 257.16Z" fill="#FFADC8"/>
<path fill-rule="evenodd" clip-rule="evenodd" d="M362.416 257.702L361.141 256.511C361.141 256.511 358.078 257.362 356.08 261.147L358.504 263.913L362.416 257.702Z" fill="#D4DAE9"/>
<path fill-rule="evenodd" clip-rule="evenodd" d="M396.45 259.111C404.6 265.925 387.421 284.598 381.142 284.983C374.862 285.37 355.566 264.477 355.566 264.477C355.566 264.477 359.239 259.458 362.331 257.16C362.331 257.16 374.97 269.889 378.882 270.093C382.793 270.297 389.132 252.994 396.45 259.111" fill="#2789F5"/>
<path fill-rule="evenodd" clip-rule="evenodd" d="M356.451 382.373L360.773 367.559H385.381L381.059 382.373H356.451ZM401.296 313.002L396.771 328.513H372.164L376.689 313.002H401.296ZM371.249 331.652H395.856L391.535 346.466H366.926L371.249 331.652ZM386.297 364.419H361.689L366.011 349.605H390.619L386.297 364.419ZM349.112 401.924C349.259 401.967 349.407 401.987 349.553 401.987C350.232 401.987 350.859 401.542 351.059 400.856L355.535 385.512H380.143L375.922 399.977C375.68 400.809 376.157 401.681 376.989 401.924C377.822 402.167 378.694 401.689 378.936 400.856L393.972 349.32C394.377 349.036 394.643 348.568 394.643 348.036C394.643 347.822 394.599 347.619 394.522 347.434L399.277 331.134C399.531 330.856 399.689 330.489 399.689 330.082C399.689 329.991 399.677 329.902 399.662 329.815L404.897 311.872C405.035 311.398 404.942 310.886 404.646 310.49C404.349 310.096 403.884 309.863 403.39 309.863H375.513C374.815 309.863 374.2 310.323 374.005 310.993L348.045 399.977C347.802 400.809 348.28 401.681 349.112 401.924V401.924Z" fill="#274F7A"/>
<path fill-rule="evenodd" clip-rule="evenodd" d="M377.795 313.002H402.402L406.927 328.513H382.32L377.795 313.002ZM398.033 382.373L393.711 367.558H418.319L422.641 382.373H398.033ZM388.473 349.606H413.081L417.404 364.42H392.796L388.473 349.606ZM383.237 331.652H407.844L412.166 346.466H387.558L383.237 331.652ZM374.195 311.872L389.914 365.751C389.902 365.829 389.89 365.908 389.89 365.989C389.89 366.385 390.042 366.743 390.283 367.019L400.155 400.857C400.355 401.542 400.982 401.987 401.662 401.987C401.807 401.987 401.955 401.967 402.101 401.924C402.934 401.682 403.412 400.81 403.169 399.978L398.949 385.512H423.557L428.033 400.857C428.277 401.689 429.148 402.167 429.981 401.924C430.812 401.682 431.29 400.81 431.047 399.978L426.462 384.263C426.484 384.159 426.496 384.052 426.496 383.942C426.496 383.517 426.325 383.132 426.05 382.849L415.808 347.742C415.791 347.652 415.763 347.564 415.731 347.48L410.754 330.417C410.777 330.309 410.791 330.198 410.791 330.083C410.791 329.65 410.616 329.259 410.333 328.974L405.087 310.993C404.892 310.323 404.278 309.863 403.58 309.863H375.702C375.208 309.863 374.742 310.095 374.446 310.491C374.149 310.886 374.056 311.397 374.195 311.872V311.872Z" fill="#274F7A"/>
<path fill-rule="evenodd" clip-rule="evenodd" d="M223.293 220.856H160.671C157.342 220.856 154.644 218.158 154.644 214.83C154.644 211.501 157.342 208.803 160.671 208.803H223.293C226.62 208.803 229.319 211.501 229.319 214.83C229.319 218.158 226.62 220.856 223.293 220.856" fill="#73B1F5"/>
<path fill-rule="evenodd" clip-rule="evenodd" d="M193.973 242.093H160.671C157.342 242.093 154.644 239.395 154.644 236.066C154.644 232.737 157.342 230.039 160.671 230.039H193.973C197.301 230.039 200 232.737 200 236.066C200 239.395 197.301 242.093 193.973 242.093" fill="#73B1F5"/>
<path fill-rule="evenodd" clip-rule="evenodd" d="M97.495 103.429C97.495 106.268 95.194 108.57 92.3538 108.57C89.5145 108.57 87.2126 106.268 87.2126 103.429C87.2126 100.589 89.5145 98.2874 92.3538 98.2874C95.194 98.2874 97.495 100.589 97.495 103.429" fill="#247BDE"/>
<path fill-rule="evenodd" clip-rule="evenodd" d="M133.985 103.429C133.985 106.268 131.683 108.57 128.843 108.57C126.004 108.57 123.703 106.268 123.703 103.429C123.703 100.589 126.004 98.2874 128.843 98.2874C131.683 98.2874 133.985 100.589 133.985 103.429" fill="#BFC4F8"/>
<path fill-rule="evenodd" clip-rule="evenodd" d="M246.906 199.839H160.671C157.342 199.839 154.644 197.141 154.644 193.812C154.644 190.483 157.342 187.785 160.671 187.785H246.906C250.235 187.785 252.934 190.483 252.934 193.812C252.934 197.141 250.235 199.839 246.906 199.839" fill="#274F7A"/>
<path fill-rule="evenodd" clip-rule="evenodd" d="M243.118 340.011H209.816C206.487 340.011 203.789 337.313 203.789 333.983C203.789 330.655 206.487 327.957 209.816 327.957H243.118C246.446 327.957 249.144 330.655 249.144 333.983C249.144 337.313 246.446 340.011 243.118 340.011" fill="#73B1F5"/>
<path fill-rule="evenodd" clip-rule="evenodd" d="M223.293 318.774H160.671C157.342 318.774 154.644 316.076 154.644 312.747C154.644 309.419 157.342 306.721 160.671 306.721H223.293C226.62 306.721 229.319 309.419 229.319 312.747C229.319 316.076 226.62 318.774 223.293 318.774" fill="#73B1F5"/>
<path fill-rule="evenodd" clip-rule="evenodd" d="M193.973 340.011H160.671C157.342 340.011 154.644 337.313 154.644 333.983C154.644 330.655 157.342 327.957 160.671 327.957H193.973C197.301 327.957 200 330.655 200 333.983C200 337.313 197.301 340.011 193.973 340.011" fill="#73B1F5"/>
<path fill-rule="evenodd" clip-rule="evenodd" d="M246.906 297.757H160.671C157.342 297.757 154.644 295.059 154.644 291.73C154.644 288.401 157.342 285.703 160.671 285.703H246.906C250.235 285.703 252.934 288.401 252.934 291.73C252.934 295.059 250.235 297.757 246.906 297.757" fill="#274F7A"/>
<path fill-rule="evenodd" clip-rule="evenodd" d="M108.27 222.359V200.302L103.235 202.426L101.238 197.806L109.602 193.894H113.722V222.359H108.27Z" fill="white"/>
<path fill-rule="evenodd" clip-rule="evenodd" d="M133.777 303.61C133.777 315.541 124.105 325.213 112.174 325.213C100.244 325.213 90.5715 315.541 90.5715 303.61C90.5715 291.68 100.244 282.008 112.174 282.008C124.105 282.008 133.777 291.68 133.777 303.61" fill="#ABD3FF"/>
<path fill-rule="evenodd" clip-rule="evenodd" d="M106.142 312.956V309.781C107.191 308.75 108.161 307.789 109.05 306.899C109.425 306.526 109.806 306.144 110.197 305.753C110.589 305.362 110.954 304.997 111.291 304.659C111.63 304.321 111.931 304.014 112.199 303.738C112.466 303.463 112.671 303.244 112.812 303.085C113.097 302.747 113.349 302.444 113.572 302.177C113.796 301.91 113.973 301.648 114.105 301.39C114.24 301.133 114.341 300.875 114.413 300.617C114.484 300.36 114.52 300.079 114.52 299.777C114.52 299.189 114.288 298.679 113.827 298.242C113.364 297.807 112.733 297.589 111.931 297.589C111.131 297.589 110.509 297.816 110.064 298.269C109.619 298.723 109.317 299.235 109.158 299.804L105.983 298.496C106.126 298.015 106.356 297.523 106.676 297.015C106.996 296.509 107.406 296.055 107.904 295.654C108.401 295.255 108.993 294.926 109.677 294.668C110.362 294.409 111.131 294.281 111.985 294.281C112.91 294.281 113.746 294.419 114.493 294.695C115.24 294.97 115.87 295.348 116.387 295.828C116.903 296.308 117.304 296.873 117.587 297.523C117.872 298.171 118.015 298.869 118.015 299.617C118.015 300.755 117.735 301.8 117.174 302.751C116.614 303.703 115.934 304.588 115.134 305.406L112.84 307.7C112.234 308.305 111.549 308.98 110.784 309.727L110.891 309.888H118.282V312.956H106.142Z" fill="#F1F3FF"/>
<path fill-rule="evenodd" clip-rule="evenodd" d="M161.861 395.225L173.253 356.609L184.643 395.225H161.861ZM57.5689 395.225L68.9597 356.609L80.3514 395.225H57.5689ZM190.055 403.828L175.204 353.482H182.456C183.42 353.482 184.201 352.701 184.201 351.737H174.689L174.575 351.348C174.573 351.343 174.571 351.34 174.57 351.336C174.552 351.278 174.526 351.224 174.502 351.17C174.488 351.141 174.479 351.109 174.464 351.082C174.441 351.039 174.411 351.001 174.383 350.959C174.36 350.927 174.341 350.891 174.316 350.861C174.282 350.818 174.24 350.782 174.199 350.744C174.176 350.721 174.155 350.695 174.129 350.674C174.092 350.643 174.049 350.619 174.008 350.592C173.974 350.569 173.943 350.545 173.908 350.526C173.877 350.509 173.842 350.498 173.809 350.483C173.758 350.461 173.708 350.437 173.655 350.42C173.65 350.419 173.646 350.416 173.642 350.415C173.611 350.406 173.58 350.404 173.548 350.397C173.494 350.385 173.442 350.372 173.387 350.367C173.342 350.363 173.299 350.365 173.255 350.365C173.209 350.365 173.163 350.363 173.117 350.367C173.064 350.372 173.014 350.385 172.962 350.396C172.929 350.403 172.895 350.405 172.862 350.415C172.858 350.416 172.854 350.419 172.849 350.421C172.799 350.436 172.753 350.458 172.705 350.48C172.668 350.496 172.63 350.507 172.597 350.526C172.569 350.54 172.546 350.561 172.521 350.577C172.471 350.608 172.42 350.638 172.374 350.675C172.367 350.681 172.362 350.688 172.355 350.695C172.295 350.746 172.238 350.8 172.189 350.861C172.166 350.888 172.15 350.92 172.13 350.948C172.099 350.993 172.066 351.035 172.039 351.083C172.026 351.109 172.016 351.139 172.003 351.167C171.978 351.223 171.953 351.278 171.935 351.336C171.934 351.34 171.932 351.343 171.931 351.348L171.815 351.737H70.3977L70.2818 351.348C70.281 351.343 70.2786 351.34 70.277 351.336C70.2595 351.278 70.2349 351.224 70.2095 351.17C70.1968 351.141 70.1873 351.11 70.1722 351.082C70.1492 351.039 70.1182 351 70.0904 350.959C70.0682 350.926 70.0483 350.891 70.0237 350.861C69.9904 350.82 69.9499 350.785 69.911 350.748C69.8855 350.724 69.8641 350.696 69.8371 350.674C69.8022 350.645 69.7609 350.622 69.722 350.596C69.6863 350.573 69.6529 350.546 69.6148 350.525C69.5854 350.509 69.5529 350.499 69.5219 350.485C69.4695 350.461 69.4171 350.437 69.3615 350.42C69.3575 350.419 69.3544 350.416 69.3496 350.415C69.3194 350.406 69.2892 350.404 69.2583 350.398C69.2043 350.386 69.1503 350.372 69.0947 350.367C69.0487 350.363 69.005 350.365 68.9597 350.365C68.9145 350.365 68.8708 350.363 68.8255 350.367C68.77 350.372 68.7152 350.386 68.6612 350.398C68.631 350.405 68.6008 350.406 68.5699 350.415C68.5659 350.416 68.5627 350.419 68.558 350.42C68.5032 350.437 68.45 350.462 68.3976 350.485C68.3674 350.499 68.3341 350.509 68.3047 350.525C68.2674 350.546 68.2348 350.572 68.1991 350.596C68.1602 350.622 68.1189 350.645 68.0831 350.674C68.0585 350.694 68.0387 350.719 68.0157 350.742C67.9744 350.781 67.9315 350.818 67.8958 350.861C67.8727 350.889 67.8545 350.923 67.8338 350.954C67.8037 350.996 67.7719 351.037 67.7481 351.083C67.733 351.109 67.7235 351.14 67.7116 351.168C67.6861 351.224 67.6599 351.278 67.6425 351.336C67.6417 351.34 67.6393 351.343 67.6377 351.348L67.5234 351.737H56.2612C56.2612 352.701 57.0417 353.482 58.0056 353.482H67.0081L52.1577 403.828C51.9418 404.558 52.3594 405.325 53.0899 405.54C53.2193 405.578 53.3511 405.597 53.4798 405.597C54.0753 405.597 54.6239 405.208 54.801 404.608L56.7558 397.982H81.1636L83.1185 404.608C83.2955 405.208 83.845 405.597 84.4397 405.597C84.5691 405.597 84.7001 405.578 84.8304 405.54C85.56 405.325 85.9785 404.558 85.7625 403.828L70.9114 353.482H171.301L156.45 403.828C156.235 404.558 156.652 405.325 157.381 405.54C157.511 405.578 157.643 405.597 157.773 405.597C158.368 405.597 158.917 405.208 159.094 404.608L161.051 397.972C161.084 397.974 161.115 397.982 161.149 397.982H185.004C185.156 397.982 185.299 397.952 185.433 397.907L187.411 404.608C187.588 405.208 188.137 405.597 188.733 405.597C188.861 405.597 188.993 405.578 189.122 405.54C189.853 405.325 190.27 404.558 190.055 403.828V403.828Z" fill="#73B1F5"/>
<path fill-rule="evenodd" clip-rule="evenodd" d="M49.6747 351.737H190.787C191.836 351.737 192.687 350.887 192.687 349.837C192.687 348.788 191.836 347.937 190.787 347.937H49.6747C48.6258 347.937 47.7747 348.788 47.7747 349.837C47.7747 350.887 48.6258 351.737 49.6747 351.737" fill="#247BDE"/>
<path fill-rule="evenodd" clip-rule="evenodd" d="M119.911 341.451H164.591C165.49 341.451 166.221 340.721 166.221 339.82V314.02C166.221 313.119 165.49 312.388 164.591 312.388H119.911C119.01 312.388 118.28 313.119 118.28 314.02V339.82C118.28 340.721 119.01 341.451 119.911 341.451" fill="#274F7A"/>
<path fill-rule="evenodd" clip-rule="evenodd" d="M163.831 315.382C163.831 315.215 163.695 315.08 163.529 315.08H121.037C120.871 315.08 120.736 315.215 120.736 315.382V339.886C120.736 340.053 120.871 340.188 121.037 340.188H163.529C163.695 340.188 163.831 340.053 163.831 339.886V315.382Z" fill="#F0FEFF"/>
</g>
<mask id="mask2" mask-type="alpha" maskUnits="userSpaceOnUse" x="120" y="315" width="44" height="26">
<path fill-rule="evenodd" clip-rule="evenodd" d="M121.038 315.08C120.871 315.08 120.735 315.215 120.735 315.382V315.382V339.885C120.735 340.053 120.871 340.188 121.038 340.188V340.188H163.528C163.696 340.188 163.831 340.053 163.831 339.885V339.885V315.382C163.831 315.215 163.696 315.08 163.528 315.08V315.08" fill="white"/>
</mask>
<g mask="url(#mask2)">
<path fill-rule="evenodd" clip-rule="evenodd" d="M162.839 342.103H121.665C120.423 342.103 119.417 341.096 119.417 339.854V315.838C119.417 314.597 120.423 313.59 121.665 313.59H162.839C164.08 313.59 165.087 314.597 165.087 315.838V339.854C165.087 341.096 164.08 342.103 162.839 342.103" fill="#F1F3FF"/>
</g>
<mask id="mask3" mask-type="alpha" maskUnits="userSpaceOnUse" x="120" y="315" width="44" height="26">
<path fill-rule="evenodd" clip-rule="evenodd" d="M121.038 315.08C120.871 315.08 120.735 315.215 120.735 315.382V315.382V339.885C120.735 340.053 120.871 340.188 121.038 340.188V340.188H163.528C163.696 340.188 163.831 340.053 163.831 339.885V339.885V315.382C163.831 315.215 163.696 315.08 163.528 315.08V315.08H121.038Z" fill="white"/>
</mask>
<g mask="url(#mask3)">
<path fill-rule="evenodd" clip-rule="evenodd" d="M157.059 318.586L146.881 326.883L141.784 325.706L135.393 331.742L130.135 330.219L126.818 333.264V333.654H157.059V318.586Z" fill="#96C8FF"/>
</g>
<mask id="mask4" mask-type="alpha" maskUnits="userSpaceOnUse" x="120" y="315" width="44" height="26">
<path fill-rule="evenodd" clip-rule="evenodd" d="M121.038 315.08C120.871 315.08 120.735 315.215 120.735 315.382V315.382V339.885C120.735 340.053 120.871 340.188 121.038 340.188V340.188H163.528C163.696 340.188 163.831 340.053 163.831 339.885V339.885V315.382C163.831 315.215 163.696 315.08 163.528 315.08V315.08" fill="white"/>
</mask>
<g mask="url(#mask4)">
<path fill-rule="evenodd" clip-rule="evenodd" d="M156.994 317.829C156.576 317.829 156.237 318.168 156.237 318.586C156.237 318.699 156.263 318.806 156.308 318.902L147.304 326.241C147.185 326.165 147.047 326.12 146.896 326.12C146.617 326.12 146.375 326.273 146.244 326.499L142.492 325.632C142.444 325.26 142.13 324.972 141.745 324.972C141.326 324.972 140.987 325.31 140.987 325.729C140.987 325.85 141.018 325.963 141.068 326.064L135.766 331.073C135.652 331.005 135.521 330.963 135.378 330.963C135.11 330.963 134.877 331.103 134.742 331.313L130.884 330.196C130.88 329.783 130.544 329.448 130.128 329.448C129.71 329.448 129.371 329.787 129.371 330.206C129.371 330.325 129.4 330.435 129.45 330.535L126.662 333.094C126.568 333.18 126.562 333.326 126.648 333.42C126.694 333.47 126.756 333.495 126.818 333.495C126.874 333.495 126.93 333.475 126.974 333.434L129.769 330.869C129.877 330.928 129.997 330.963 130.128 330.963C130.386 330.963 130.612 330.834 130.749 330.638L134.625 331.76C134.646 332.159 134.973 332.478 135.378 332.478C135.797 332.478 136.136 332.139 136.136 331.721C136.136 331.613 136.113 331.51 136.072 331.418L141.391 326.395C141.496 326.451 141.616 326.486 141.745 326.486C142.032 326.486 142.281 326.323 142.409 326.087L146.146 326.95C146.183 327.334 146.502 327.635 146.896 327.635C147.315 327.635 147.654 327.296 147.654 326.877C147.654 326.777 147.633 326.683 147.598 326.596L156.621 319.241C156.731 319.305 156.857 319.344 156.994 319.344C157.412 319.344 157.751 319.005 157.751 318.586C157.751 318.168 157.412 317.829 156.994 317.829" fill="#2789F5"/>
</g>
<mask id="mask5" mask-type="alpha" maskUnits="userSpaceOnUse" x="120" y="315" width="44" height="26">
<path fill-rule="evenodd" clip-rule="evenodd" d="M121.038 315.08C120.871 315.08 120.735 315.215 120.735 315.382V315.382V339.885C120.735 340.053 120.871 340.188 121.038 340.188V340.188H163.528C163.696 340.188 163.831 340.053 163.831 339.885V339.885V315.382C163.831 315.215 163.696 315.08 163.528 315.08V315.08" fill="white"/>
</mask>
<g mask="url(#mask5)">
<path fill-rule="evenodd" clip-rule="evenodd" d="M126.507 319.945H141.441C141.663 319.945 141.842 319.765 141.842 319.542C141.842 319.32 141.663 319.141 141.441 319.141H126.507C126.285 319.141 126.105 319.32 126.105 319.542C126.105 319.765 126.285 319.945 126.507 319.945" fill="#73B1F5"/>
</g>
<mask id="mask6" mask-type="alpha" maskUnits="userSpaceOnUse" x="120" y="315" width="44" height="26">
<path fill-rule="evenodd" clip-rule="evenodd" d="M121.038 315.08C120.871 315.08 120.735 315.215 120.735 315.382V315.382V339.885C120.735 340.053 120.871 340.188 121.038 340.188V340.188H163.528C163.696 340.188 163.831 340.053 163.831 339.885V339.885V315.382C163.831 315.215 163.696 315.08 163.528 315.08V315.08" fill="white"/>
</mask>
<g mask="url(#mask6)">
<path fill-rule="evenodd" clip-rule="evenodd" d="M126.507 321.576H134.169C134.393 321.576 134.572 321.396 134.572 321.175C134.572 320.952 134.393 320.772 134.169 320.772H126.507C126.285 320.772 126.105 320.952 126.105 321.175C126.105 321.396 126.285 321.576 126.507 321.576" fill="#73B1F5"/>
</g>
<path fill-rule="evenodd" clip-rule="evenodd" d="M166.248 336.905V339.82C166.248 340.72 165.491 341.502 164.59 341.502H119.911C119.01 341.502 118.319 340.72 118.319 339.82V336.905H166.248Z" fill="#274F7A"/>
<path fill-rule="evenodd" clip-rule="evenodd" d="M134.869 348.492H147.656C147.656 348.492 146.771 345.845 146.607 344.962C146.443 344.076 146.343 341.416 146.343 341.416H136.182C136.182 341.416 136.092 344.026 135.931 344.896C135.763 345.796 134.869 348.492 134.869 348.492" fill="#274F7A"/>
<path fill-rule="evenodd" clip-rule="evenodd" d="M140.202 339.015C140.202 339.502 140.598 339.898 141.086 339.898C141.574 339.898 141.97 339.502 141.97 339.015C141.97 338.526 141.574 338.131 141.086 338.131C140.598 338.131 140.202 338.526 140.202 339.015" fill="#1C2334"/>
<path fill-rule="evenodd" clip-rule="evenodd" d="M81.155 415.405V421.24C81.155 421.24 81.822 422.654 84.7114 422.549C87.6016 422.444 89.8232 421.076 92.1878 418.549C94.5523 416.023 96.7573 413.392 96.057 411.077C95.3566 408.761 93.7242 407.919 88.2074 410.13C82.6898 412.34 81.155 415.405 81.155 415.405" fill="#4491FF"/>
<mask id="mask7" mask-type="alpha" maskUnits="userSpaceOnUse" x="64" y="408" width="17" height="15">
<path fill-rule="evenodd" clip-rule="evenodd" d="M64.1089 408.574H80.4684V422.641H64.1089V408.574Z" fill="white"/>
</mask>
<g mask="url(#mask7)">
<path fill-rule="evenodd" clip-rule="evenodd" d="M64.6345 414.34L64.1089 420.97C64.1089 420.97 64.6345 423.087 69.0135 422.555C73.3916 422.023 78.2954 415.603 80.047 412.971C81.7986 410.34 77.8571 406.34 72.5158 410.13C67.1738 413.919 64.6345 414.34 64.6345 414.34" fill="#4491FF"/>
</g>
<path fill-rule="evenodd" clip-rule="evenodd" d="M55.1894 304.109C55.1894 304.109 57.3308 302.591 58.0533 300.485C58.7767 298.378 59.8002 297.294 60.2821 296.873C60.7641 296.452 61.0047 295.008 58.8966 295.79C56.7893 296.572 56.6082 298.017 55.584 298.017C54.5605 298.017 53.7443 293.804 52.5866 292.359C51.4289 290.915 50.7064 291.275 50.5857 292.66C50.5857 292.66 47.8154 295.85 48.237 298.017C48.6586 300.184 50.5373 304.879 50.5373 304.879L52.5866 305.721L55.1894 304.109Z" fill="#FFADC8"/>
<path fill-rule="evenodd" clip-rule="evenodd" d="M54.7753 306.131V304.11L50.3789 304.878V306.535L49.9041 309.846L54.2536 309.092L54.7753 306.131Z" fill="#D4DAE9"/>
<path fill-rule="evenodd" clip-rule="evenodd" d="M65.8845 313.939C65.8845 313.939 63.373 313.635 61.6532 315.983C59.9342 318.332 57.8134 321.826 57.8134 321.826L55.9014 305.12C55.9014 305.12 53.1533 307.142 48.6124 308.155C48.6124 308.155 48.3734 329.234 52.3165 333.233C56.2603 337.231 68.0608 327.721 68.0608 327.721L65.8845 313.939Z" fill="#2789F5"/>
<path fill-rule="evenodd" clip-rule="evenodd" d="M90.2218 356.416C90.2218 356.416 93.0509 381.402 92.6825 387.612C92.3633 392.981 90.2965 410.178 89.743 414.734C89.6605 415.417 89.2349 415.963 88.6735 416.107C87.1554 416.495 84.1008 417.154 81.9141 416.818C81.1868 416.706 80.6612 415.929 80.7199 415.05C81.0177 410.61 81.9594 396.76 82.4723 391.455C83.0877 385.098 79.6433 375.34 78.0441 370.461C76.445 365.583 72.8172 364.332 73.2467 357.909C73.6755 351.487 74.1074 346.362 74.1074 346.362L90.2218 356.416Z" fill="#274F7A"/>
<path fill-rule="evenodd" clip-rule="evenodd" d="M72.3823 415.277C70.9221 415.769 67.7779 416.557 64.9337 415.46C64.3216 415.223 63.9452 414.483 64.019 413.714C64.447 409.237 65.8667 393.934 65.8667 387.907C65.8667 380.811 63.8976 365.583 63.8976 365.583C63.8976 365.583 61.5608 358.19 61.5608 352.72L71.6479 349.467L74.8461 350.798C74.8461 350.798 79.3974 372.827 77.7982 383.915C76.4103 393.539 73.9767 409.844 73.3582 413.984C73.2653 414.605 72.8881 415.106 72.3823 415.277" fill="#274F7A"/>
<path fill-rule="evenodd" clip-rule="evenodd" d="M112.801 328.621C112.801 328.621 113.174 328.418 114.519 328.418C115.864 328.418 117.387 327.109 118.024 326.72C118.661 326.331 119.978 325.714 119.086 327.852C118.909 328.277 117.564 328.878 117.634 329.55C117.705 330.223 124.411 332.543 124.572 333.233C124.733 333.923 122.748 333.869 122.266 334.03C121.783 334.19 120.494 335.585 118.403 335.37C116.311 335.155 113.587 332.77 113.587 332.77L112.801 328.621Z" fill="#FFADC8"/>
<path fill-rule="evenodd" clip-rule="evenodd" d="M111.255 328.854L112.801 328.622C112.801 328.622 114.193 329.926 113.587 332.77L110.835 333.233L111.255 328.854Z" fill="#D4DAE9"/>
<path fill-rule="evenodd" clip-rule="evenodd" d="M83.5208 305.442C83.5208 305.442 82.5736 307.885 83.0651 311.879C83.5566 315.872 73.5608 314.241 73.5608 314.241V305.121L83.5208 305.442Z" fill="#FFADC8"/>
<path fill-rule="evenodd" clip-rule="evenodd" d="M76.1762 286.498C68.1829 289.839 68.067 307.311 76.1762 307.311C84.2854 307.311 86.3125 305.286 87.4178 304.365C88.5238 303.443 86.3125 282.262 76.1762 286.498" fill="#FFADC8"/>
<path fill-rule="evenodd" clip-rule="evenodd" d="M70.1373 287.426C70.1373 287.426 70.158 284.737 75.1332 284.166C80.1077 283.596 85.2449 282.943 86.3049 287.426C87.3649 291.909 83.9403 291.338 83.9403 291.338L81.8203 297.94C81.8203 297.94 82.419 306.823 79.1835 308.29C75.9479 309.757 72.8068 310.736 70.1373 304.786C67.4679 298.837 64.7762 296.228 65.1843 292.561C65.5916 288.893 70.1373 287.426 70.1373 287.426" fill="#121674"/>
<path fill-rule="evenodd" clip-rule="evenodd" d="M70.8314 309.845C70.8314 309.845 72.668 307.74 77.1962 308.229C81.7244 308.718 84.7837 310.675 84.7837 310.675L86.0073 314.571C86.0073 314.571 80.8224 311.114 75.8257 311.363C71.6389 311.571 70.1375 313.244 70.1375 313.244L70.8314 309.845Z" fill="#D4DAE9"/>
<path fill-rule="evenodd" clip-rule="evenodd" d="M89.9311 315.579C93.7757 317.775 100.915 329.713 100.915 329.713L111.625 328.478C111.625 328.478 112.964 329.884 112.785 334.255C112.785 334.255 102.251 337.288 98.7692 337.2C95.2875 337.111 87.4324 325.243 87.4324 325.243L89.9311 315.579Z" fill="#2789F5"/>
<path fill-rule="evenodd" clip-rule="evenodd" d="M66.1775 313.795C66.1775 313.795 71.3314 310.501 75.8255 310.501C80.3204 310.501 88.0087 314.07 89.931 315.579C91.8533 317.088 89.931 348.376 91.0291 355.923C91.0291 355.923 77.9852 355.649 75.2395 355.923L73.7992 350.16C73.7992 350.16 72.6312 354.551 72.3565 355.923C72.3565 355.923 67.5503 356.335 60.6854 354.551C60.6854 354.551 60.0486 316.155 66.1775 313.795" fill="#2789F5"/>
<path fill-rule="evenodd" clip-rule="evenodd" d="M82.8471 297.15C82.8471 297.15 81.2003 294.571 79.8314 295.5C78.4625 296.429 79.3423 302.478 81.7386 302.478H83.2044L82.8471 297.15Z" fill="#FFADC8"/>
<path fill-rule="evenodd" clip-rule="evenodd" d="M289.425 107.691C289.425 107.691 285.574 111.019 283.133 112.239C280.692 113.461 275.059 115.901 275.715 116.934C276.373 117.967 280.035 117.404 285.669 116.371C291.302 115.338 292.761 115.244 293.112 113.179C293.462 111.113 293.931 108.39 293.931 108.39L289.425 107.691Z" fill="#2C3955"/>
<path fill-rule="evenodd" clip-rule="evenodd" d="M281.376 113.09C282.297 113.634 283.915 114.432 285.575 114.494C288.109 114.587 292.213 111.296 293.448 111.205C293.704 109.707 293.932 108.39 293.932 108.39L289.425 107.691C289.425 107.691 285.575 111.019 283.134 112.239C282.65 112.481 282.038 112.773 281.376 113.09" fill="#FFADC8"/>
<path fill-rule="evenodd" clip-rule="evenodd" d="M302.41 114.495C302.41 114.495 304.109 122.858 305.483 124.88C306.858 126.901 310.66 129.086 311.549 126.336C312.438 123.586 309.042 118.9 308.314 117.482C307.586 116.065 305.645 113.072 305.645 113.072L302.41 114.495Z" fill="#2C3955"/>
<path fill-rule="evenodd" clip-rule="evenodd" d="M307.053 122.053C308.797 121.583 307.989 118.017 307.186 115.523C306.428 114.278 305.646 113.072 305.646 113.072L302.702 114.367C303.337 116.985 304.96 122.617 307.053 122.053" fill="#FFADC8"/>
<path fill-rule="evenodd" clip-rule="evenodd" d="M311.006 78.8129H301.703H292.399C292.399 78.8129 288.204 82.663 288.204 87.0761C288.204 91.4884 290.903 93.8037 301.703 93.8037C312.504 93.8037 315.202 91.4884 315.202 87.0761C315.202 82.663 311.006 78.8129 311.006 78.8129" fill="#3C81E3"/>
<path fill-rule="evenodd" clip-rule="evenodd" d="M277.946 37.7094C277.61 38.4971 277.274 39.272 276.938 39.9469C276.501 38.2874 276.139 34.4897 274.708 33.2304C272.867 31.6106 268.599 34.9232 268.525 36.2198C268.452 37.5173 268.452 40.1486 269.482 42.7982C270.512 45.4478 272.499 47.486 272.499 47.486L273.752 47.1557C274.804 48.1951 277.357 46.4379 277.357 46.4379C277.357 46.4379 279.491 43.755 279.565 42.136C279.638 40.517 279.785 38.6027 280.228 37.2783C280.669 35.9531 278.828 35.6386 277.946 37.7094" fill="#FFADC8"/>
<path fill-rule="evenodd" clip-rule="evenodd" d="M323.062 89.2598C323.062 89.2598 322.822 93.3291 326.277 93.3291C329.733 93.3291 330.935 92.254 331.986 92.254C333.037 92.254 334.09 93.3291 335.817 93.3291C337.134 93.3291 338.577 93.0694 337.751 92.3993C336.926 91.7284 335.488 91.8673 334.457 91.248C333.426 90.6294 331.86 89.7171 330.55 89.7171C329.24 89.7171 326.041 87.4987 326.041 87.4987L323.062 89.2598Z" fill="#FFADC8"/>
<path fill-rule="evenodd" clip-rule="evenodd" d="M314.856 53.0184C314.856 53.0184 316.635 55.9705 319.924 65.231C323.213 74.4908 328.596 85.9539 328.596 85.9539C328.596 85.9539 327.216 88.9449 321.726 89.4427C321.726 89.4427 317.831 77.8804 316.435 74.6909C315.039 71.5013 310.684 62.2313 310.684 62.2313L314.856 53.0184Z" fill="#2789F5"/>
<path fill-rule="evenodd" clip-rule="evenodd" d="M287.559 53.0184L280.453 57.7459L278.259 45.9835C278.259 45.9835 274.073 46.2829 271.68 47.6779C271.68 47.6779 273.574 61.9319 274.97 63.8257C276.365 65.7202 279.854 65.4208 282.845 63.8257C285.834 62.2313 290.62 59.4396 290.62 59.4396L287.559 53.0184Z" fill="#2789F5"/>
<path fill-rule="evenodd" clip-rule="evenodd" d="M296.63 25.7942C296.63 25.7942 298.25 23.1152 302.05 23.3645C305.85 23.6139 311.47 26.3492 311.894 32.8958C312.197 37.6019 309.225 42.7296 310.083 44.0897C310.942 45.4507 308.795 46.3733 307.894 45.083C307.894 45.083 307.942 48.4083 301.261 48.4083C294.579 48.4083 294.792 45.083 294.792 45.083C294.792 45.083 292.14 46.3923 291.556 45.65C290.973 44.9076 291.927 44.2414 292.193 43.2219C292.458 42.2024 291.715 40.0808 290.92 36.8444C290.124 33.6088 290.564 26.3071 296.63 25.7942" fill="#2C3955"/>
<path fill-rule="evenodd" clip-rule="evenodd" d="M304.293 43.4551L301.261 43.2216L298.228 43.4551C298.228 43.4551 298.741 45.5528 298.228 49.2355C298.228 49.2355 298.979 49.6547 301.261 49.6547C303.543 49.6547 304.293 49.2355 304.293 49.2355C303.78 45.5528 304.293 43.4551 304.293 43.4551" fill="#FFADC8"/>
<path fill-rule="evenodd" clip-rule="evenodd" d="M304.206 48.4083H301.268H298.33C298.33 48.4083 296.651 49.5493 294.757 50.04C294.757 50.04 295.5 56.215 301.268 56.215C307.035 56.215 307.779 50.04 307.779 50.04C305.885 49.5493 304.206 48.4083 304.206 48.4083" fill="#FFADC8"/>
<path fill-rule="evenodd" clip-rule="evenodd" d="M295.144 35.6701C295.144 35.6701 293.606 34.5513 292.813 35.6701C292.02 36.7888 292.457 40.4349 294.381 40.238C295.75 40.0983 295.983 39.7727 295.983 39.7727L295.144 35.6701Z" fill="#FFADC8"/>
<path fill-rule="evenodd" clip-rule="evenodd" d="M307.377 35.6701C307.377 35.6701 308.915 34.5513 309.709 35.6701C310.501 36.7888 310.064 40.4349 308.14 40.238C306.772 40.0983 306.538 39.7727 306.538 39.7727L307.377 35.6701Z" fill="#FFADC8"/>
<path fill-rule="evenodd" clip-rule="evenodd" d="M301.261 26.8464C296.101 26.8464 293.673 32.2528 294.432 37.1542C295.19 42.0556 298.226 45.0832 301.261 45.0832C304.296 45.0832 307.331 42.0556 308.09 37.1542C308.849 32.2528 306.42 26.8464 301.261 26.8464" fill="#FFADC8"/>
<path fill-rule="evenodd" clip-rule="evenodd" d="M294.296 35.1726C294.296 35.1726 298.624 34.0801 300.057 30.0926C300.057 30.0926 301.068 34.8765 308.225 35.2568H309.204C309.204 35.2568 309.335 26.2011 300.148 26.2011C296.879 26.2011 292.833 31.6734 294.296 35.1726" fill="#2C3955"/>
<path fill-rule="evenodd" clip-rule="evenodd" d="M296.945 49.1981C296.945 49.1981 297.114 54.1098 301.268 54.1098C305.422 54.1098 305.591 49.1981 305.591 49.1981L308.311 49.9698L307.247 68.2828L310.685 79.3695C310.685 79.3695 304.411 81.2633 301.268 81.2633C298.124 81.2633 292.722 79.58 292.722 79.58L295.983 67.3713L293.073 50.2509L296.945 49.1981Z" fill="#BFC4F8"/>
<path fill-rule="evenodd" clip-rule="evenodd" d="M306.781 49.1981C306.781 49.1981 304.389 63.3878 304.536 70.0145C304.682 76.6421 309.805 84.1264 309.805 84.1264C309.805 84.1264 313.523 82.7234 314.856 80.6963C314.856 80.6963 312.196 74.3808 312.158 70.5608C312.12 66.7401 314.927 53.9542 314.856 53.0188C314.786 52.0827 309.092 49.7118 306.781 49.1981" fill="#2789F5"/>
<path fill-rule="evenodd" clip-rule="evenodd" d="M295.634 49.1981C295.634 49.1981 298.026 63.3878 297.879 70.0145C297.733 76.6421 292.61 84.1264 292.61 84.1264C292.61 84.1264 288.892 82.7234 287.559 80.6963C287.559 80.6963 290.219 74.3808 290.258 70.5608C290.295 66.7401 287.489 53.9542 287.559 53.0188C287.63 52.0827 293.324 49.7118 295.634 49.1981" fill="#2789F5"/>
<path fill-rule="evenodd" clip-rule="evenodd" d="M296.143 84.1266C290.642 84.7293 292.001 90.192 294.019 97.2341C296.037 104.275 301.703 115.428 301.703 115.428C301.703 115.428 303.038 115.959 304.53 115.428C306.021 114.897 306.87 113.41 306.87 113.41C306.87 113.41 303.79 99.0714 302.516 94.5043C301.242 89.9372 300.711 83.6264 296.143 84.1266" fill="#3C81E3"/>
<path fill-rule="evenodd" clip-rule="evenodd" d="M309.078 77.7788C314.856 80.696 312.005 87.8 307.779 94.0155C303.554 100.231 294.757 109.998 294.757 109.998C294.757 109.998 290.743 110.205 288.586 107.691C288.586 107.691 297.314 90.7172 299.736 86.659C302.158 82.6 306.536 76.4949 309.078 77.7788" fill="#4491FF"/>
<path fill-rule="evenodd" clip-rule="evenodd" d="M340.374 377.374L306.759 305.287C303.174 307.574 299.3 309.38 295.243 310.658L328.857 382.743C329.6 384.334 330.915 385.472 332.443 386.028C333.971 386.585 335.711 386.558 337.301 385.816C340.481 384.334 341.856 380.554 340.374 377.374" fill="#73B1F5"/>
<path fill-rule="evenodd" clip-rule="evenodd" d="M267.965 299.862C248.506 292.779 238.473 271.263 245.555 251.804C252.638 232.345 274.155 222.312 293.613 229.394C313.073 236.477 323.105 257.993 316.023 277.452C308.94 296.911 287.424 306.944 267.965 299.862M297.29 219.291C272.251 210.178 244.566 223.088 235.452 248.127C226.339 273.166 239.249 300.852 264.288 309.965C289.327 319.078 317.013 306.168 326.126 281.129C335.24 256.09 322.329 228.404 297.29 219.291" fill="#2789F5"/>
<path fill-rule="evenodd" clip-rule="evenodd" d="M303.866 329.15L294.708 309.51L306.225 304.139L315.383 323.78L303.866 329.15Z" fill="#2789F5"/>
<path fill-rule="evenodd" clip-rule="evenodd" d="M316.023 277.452C308.94 296.911 287.424 306.945 267.966 299.862C248.506 292.779 238.473 271.263 245.556 251.804C252.638 232.345 274.155 222.312 293.613 229.395C313.072 236.477 323.106 257.993 316.023 277.452" fill="#ABD3FF"/>
<path fill-rule="evenodd" clip-rule="evenodd" d="M341.713 376.49L328.675 348.529C328.341 347.813 327.49 347.503 326.775 347.837L314.971 353.34C314.257 353.675 313.946 354.525 314.281 355.24L327.419 383.417C328.346 385.404 329.99 386.828 331.9 387.523C333.81 388.218 335.984 388.185 337.971 387.259C341.932 385.412 343.56 380.45 341.713 376.49" fill="#274F7A"/>
<path fill-rule="evenodd" clip-rule="evenodd" d="M47.8254 359.111C45.4283 353.686 30.9702 360.379 32.6146 367.642C31.8253 368.283 31.1306 368.893 30.5462 369.432C30.5303 365.704 30.5264 361.344 30.5462 356.379C33.854 356.151 38.3497 354.582 38.3497 345.222C38.3497 334.745 34.5091 320.775 29.5235 320.775C24.5395 320.775 21.5858 332.126 21.4111 338.936C21.2476 345.32 22.0043 355.093 28.1229 356.293C28.1102 359.292 28.107 362.076 28.1094 364.629C27.5822 364.044 26.9565 363.399 26.2268 362.721C27.5957 355.415 11.9712 346.706 9.33032 353.195C6.68548 359.693 20.56 370.072 25.112 365.028C26.7945 366.673 27.7648 368.022 28.1189 368.551C28.1237 369.812 28.1292 371.005 28.1364 372.13C28.1022 372.299 28.1022 372.472 28.1404 372.639C28.1959 380.981 28.3103 385.377 28.3127 385.463C28.3293 386.122 28.8685 386.643 29.5235 386.643C29.5346 386.643 29.5458 386.643 29.5561 386.643C30.2254 386.625 30.7534 386.068 30.736 385.399C30.7336 385.313 30.6224 380.999 30.5661 372.811C31.1131 372.236 32.3105 371.034 33.9851 369.658C37.8161 371.046 50.0994 364.257 47.8254 359.111" fill="#73B1F5"/>
<path fill-rule="evenodd" clip-rule="evenodd" d="M37.6791 406.379H21.3686C20.6739 406.379 20.0633 405.917 19.8743 405.249L13.4802 382.672C13.2007 381.681 13.9447 380.696 14.9745 380.696H44.0733C45.1031 380.696 45.8471 381.681 45.5668 382.672L39.1727 405.249C38.9837 405.917 38.3731 406.379 37.6791 406.379" fill="#247BDE"/>
<path fill-rule="evenodd" clip-rule="evenodd" d="M494.649 127.528C494.706 130.915 492.005 133.707 488.618 133.763C485.231 133.82 482.439 131.119 482.383 127.732C482.326 124.345 485.027 121.553 488.414 121.497C491.802 121.44 494.594 124.141 494.649 127.528" fill="#96C8FF"/>
<path fill-rule="evenodd" clip-rule="evenodd" d="M59.9261 133.697C59.9634 135.939 58.1769 137.785 55.9354 137.823C53.6932 137.86 51.8455 136.074 51.8082 133.831C51.7709 131.591 53.5582 129.743 55.8005 129.706C58.0411 129.668 59.8888 131.456 59.9261 133.697" fill="#96C8FF"/>
<path fill-rule="evenodd" clip-rule="evenodd" d="M404.49 62.8667L401.467 62.9168L401.417 59.894C401.396 58.6371 400.36 57.635 399.103 57.6565C397.846 57.6771 396.844 58.7125 396.864 59.9702L396.915 62.993L393.891 63.043C392.634 63.0636 391.633 64.0998 391.654 65.3567C391.675 66.6137 392.711 67.6157 393.968 67.595L396.991 67.545L397.04 70.5678C397.062 71.8247 398.097 72.8268 399.354 72.8061C400.612 72.7847 401.614 71.7493 401.593 70.4924L401.542 67.4688L404.566 67.4188C405.823 67.3981 406.824 66.362 406.804 65.105C406.783 63.8481 405.747 62.8461 404.49 62.8667" fill="#E0EFFF"/>
<path fill-rule="evenodd" clip-rule="evenodd" d="M35.0615 170.28L31.8791 170.333L31.8267 167.152C31.8045 165.828 30.7143 164.774 29.3907 164.795C28.0679 164.818 27.0134 165.908 27.0356 167.231L27.088 170.413L23.9065 170.465C22.5836 170.488 21.5284 171.578 21.5506 172.901C21.5729 174.224 22.663 175.279 23.9867 175.257L27.1682 175.204L27.2206 178.386C27.2429 179.709 28.3331 180.764 29.6559 180.741C30.9787 180.72 32.0339 179.629 32.0117 178.306L31.9593 175.125L35.1409 175.071C36.4645 175.05 37.5189 173.959 37.4967 172.636C37.4745 171.313 36.3843 170.259 35.0615 170.28" fill="#E0EFFF"/>
</svg>
