<svg preserveAspectRatio="none" viewBox="0 0 558 467" fill="none" xmlns="http://www.w3.org/2000/svg">
<path opacity="0.44415" fill-rule="evenodd" clip-rule="evenodd" d="M538.85 57.9865C435.221 57.9865 327.715 23.52 264.09 4.10893C200.466 -15.3022 135.935 36.2963 158.999 111.8C182.063 187.303 76.5755 241.747 46.3734 295.304C16.1713 348.861 36.2442 451.642 162.875 439.581C289.507 427.52 335.995 407.444 388.85 449.007C441.704 490.569 520.929 450.865 538.85 398.151C556.771 345.437 642.479 57.9865 538.85 57.9865Z" fill="#459EFF" fill-opacity="0.2"/>
<path fill-rule="evenodd" clip-rule="evenodd" d="M533.5 418C576.302 418 611 383.302 611 340.5C611 297.698 576.302 263 533.5 263C490.698 263 456 297.698 456 340.5C456 383.302 490.698 418 533.5 418Z" stroke="#474BCA" stroke-opacity="0.1" stroke-width="10"/>
<path fill-rule="evenodd" clip-rule="evenodd" d="M62.5 455C72.7173 455 81 446.717 81 436.5C81 426.283 72.7173 418 62.5 418C52.2827 418 44 426.283 44 436.5C44 446.717 52.2827 455 62.5 455Z" stroke="#474BCA" stroke-opacity="0.1" stroke-width="5"/>
<path d="M425 143L558 78" stroke="url(#paint0_linear)" stroke-width="5"/>
<path d="M44.25 66.25L1.75 33.75" stroke="#474BCA" stroke-opacity="0.1" stroke-width="5"/>
<defs>
<linearGradient id="paint0_linear" x1="408.613" y1="206.233" x2="615.905" y2="60.1071" gradientUnits="userSpaceOnUse">
<stop stop-color="white" stop-opacity="0.01"/>
<stop offset="1" stop-color="#459EFF" stop-opacity="0.3"/>
</linearGradient>
</defs>
</svg>
