<svg width="18" height="12" viewBox="0 0 18 12" fill="none" xmlns="http://www.w3.org/2000/svg">
<path fill-rule="evenodd" clip-rule="evenodd" d="M15.5529 3.01913L9.23709 8.0806C9.12151 8.17282 8.98193 8.21892 8.84235 8.21892C8.70214 8.21892 8.56256 8.17282 8.44698 8.0806L2.13119 3.01913C1.85898 2.80124 1.8154 2.40334 2.0333 2.13113C2.25182 1.85955 2.64972 1.81597 2.9213 2.03324L8.84235 6.77829L14.7628 2.03324C15.035 1.81534 15.4322 1.85892 15.6508 2.13113C15.8687 2.40334 15.8251 2.80124 15.5529 3.01913ZM16.4213 0.000183105H1.2634C0.565507 0.000183105 0.000244141 0.565446 0.000244141 1.26334V10.737C0.000244141 11.4343 0.565507 12.0002 1.2634 12.0002H16.4213C17.1186 12.0002 17.6845 11.4343 17.6845 10.737V1.26334C17.6845 0.565446 17.1186 0.000183105 16.4213 0.000183105Z" fill="white"/>
</svg>
