<svg width="14" height="14" viewBox="0 0 14 14" fill="none" xmlns="http://www.w3.org/2000/svg">
<path fill-rule="evenodd" clip-rule="evenodd" d="M6.18782 7.52906C3.79816 5.1394 4.13947 4.79809 4.13947 4.79809L5.16389 3.77416C5.54092 3.39713 5.54092 2.78547 5.16389 2.40892L3.03975 0.284298C2.68009 -0.0748748 2.10271 -0.0980472 1.7223 0.238918C1.09616 0.793125 0.251817 1.70795 0.0432658 2.75023C-0.298045 4.45678 1.40899 6.84644 4.13947 9.5774C6.87044 12.3079 9.26009 14.0149 10.9666 13.6736C12.0089 13.4651 12.9237 12.6207 13.478 11.9946C13.8149 11.6142 13.7917 11.0368 13.4326 10.6771L11.308 8.55299C10.9314 8.17595 10.3197 8.17595 9.94271 8.55299L8.91878 9.5774C8.91878 9.5774 8.57747 9.91871 6.18782 7.52906Z" fill="white"/>
</svg>
